<svg width="157" height="43" viewBox="0 0 157 43" fill="none" xmlns="http://www.w3.org/2000/svg">
<g clip-path="url(#clip0_579_826)">
<path d="M21.6754 43C9.70789 43 0 33.3614 0 21.5208C0 9.63865 9.70789 0 21.6754 0C33.601 0 43.3507 9.63865 43.3507 21.5208C43.3089 33.3614 33.601 43 21.6754 43ZM21.6754 0.332367C9.91711 0.332367 0.334755 9.84638 0.334755 21.5208C0.334755 33.1952 9.87527 42.6676 21.6335 42.6676C33.3918 42.6676 42.9323 33.1952 42.9323 21.5208C42.9323 9.84638 33.3918 0.332367 21.6754 0.332367Z" fill="url(#paint0_linear_579_826)"/>
<path d="M25.0229 22.8087C25.7761 22.601 26.4875 22.3101 27.2407 21.8947C28.1612 21.3546 28.9563 20.6899 29.6676 19.9005C30.379 19.1111 30.9648 18.1971 31.3833 17.2415C31.8435 16.2444 32.0528 15.2473 32.0528 14.2087C32.0528 13.7932 31.8435 13.17 31.4669 12.3391C31.0903 11.5082 30.5464 10.7188 29.835 9.92947C28.2449 8.143 25.9853 6.93816 23.6421 6.73044C21.9683 6.56425 20.0853 6.73044 18.4534 7.10435C16.9888 7.43672 15.5661 8.10145 14.2689 8.84928C13.432 9.30628 12.7207 9.88792 12.0512 10.5527C10.9632 11.5913 9.54051 12.7546 9.83342 14.4164C10.0008 15.3304 10.6285 16.1198 11.2561 16.7845C11.549 17.0754 11.9256 17.6155 12.3859 17.4908C13.0554 17.2831 12.8462 15.9536 12.7625 15.4551C12.5533 13.9594 12.2185 13.0454 13.3902 11.9237C13.8505 11.5082 18.1604 8.80773 18.2023 10.5111C18.2023 10.6773 18.1604 10.8435 18.0768 11.0097C17.8257 11.7159 17.7002 12.4222 17.5746 13.1285C17.4072 14.2087 17.2399 15.372 17.1143 16.6599C16.9888 17.9063 16.9051 19.2358 16.8633 20.6068C16.7796 21.9778 16.7377 23.3072 16.7377 24.5952C16.6959 25.8831 16.6959 27.0879 16.6959 28.2097V31.5749C16.6959 32.4058 16.6959 33.0705 16.7377 33.6522C16.7796 34.1923 16.8214 34.6493 16.9051 34.9816C16.9888 35.314 17.1143 35.5633 17.2817 35.6879C17.4491 35.8541 17.6583 35.8956 17.9094 35.8956H18.5789C18.9136 35.8956 19.2484 35.8957 19.625 35.8541C20.0016 35.8126 20.3364 35.7295 20.713 35.6464C21.0477 35.5633 21.2988 35.4386 21.4662 35.2725C21.1314 35.1478 20.9222 34.9816 20.8803 34.7324C20.8385 34.4831 20.7966 34.3169 20.7966 34.1923V26.0908C20.7966 25.2184 20.8385 24.6367 20.8803 24.429C20.8803 24.1382 21.5498 24.1797 21.7172 24.1797C22.303 24.1797 22.8889 24.1382 23.4747 24.2628C23.6839 24.3043 24.1023 24.3459 24.2697 24.4705C24.5208 24.6367 24.6045 24.886 24.73 25.1353C24.8974 25.5092 25.0229 25.8831 25.1066 26.2986C25.274 27.0048 25.3158 27.7527 25.3577 28.4589C25.4832 29.6638 25.6506 31.201 25.9017 33.1121C26.0272 34.1092 26.3619 34.857 26.9059 35.2309C27.4499 35.6464 28.1194 35.8541 29.04 35.8541C29.9606 35.8541 30.6719 35.6464 31.2159 35.2725C31.7599 34.857 32.0528 34.4 32.0528 33.8184C32.0528 33.6937 32.0528 33.6106 32.0528 33.5691C32.0528 33.486 32.0109 33.4444 32.0109 33.3614C31.8435 33.6522 31.6343 33.8599 31.4669 33.9845C31.2996 34.1092 31.0903 34.1507 30.7974 34.1507C30.5464 34.1507 30.3372 33.9845 30.1698 33.6106C30.0024 33.2783 29.9187 32.8213 29.835 32.2396C29.7513 31.6995 29.7095 31.0348 29.6676 30.37C29.6258 29.6638 29.584 28.999 29.5003 28.2928C29.4166 27.5865 29.3329 26.9633 29.1655 26.3401C28.9981 25.7169 28.7889 25.2184 28.5378 24.8444C27.8683 23.9304 26.7385 23.3903 25.6924 23.058M22.0938 21.5208C21.5498 21.5208 21.2151 21.4792 21.0896 21.3546C20.964 21.23 20.9222 21.0222 20.9222 20.6483V11.3836C20.9222 10.6773 21.0059 10.1787 21.1314 9.88792C21.2988 9.5971 21.4662 9.43092 21.7172 9.38937C22.2612 9.34783 22.5959 9.34783 22.7633 9.34783H23.1399C24.8137 9.34783 26.1946 9.68019 27.2825 10.3865C28.3286 11.0928 28.8726 12.0899 28.8726 13.4609C28.8726 14.1672 28.7052 14.9981 28.3286 15.9536C27.952 16.8676 27.4499 17.7816 26.8222 18.6126C26.1946 19.4435 25.4832 20.1498 24.6882 20.7314C23.8513 21.23 22.9725 21.5208 22.0938 21.5208Z" fill="url(#paint1_linear_579_826)"/>
<path d="M6.52772 27.8357C5.52345 25.6338 5.35608 23.3903 6.10927 21.1469C6.23481 20.8145 6.48587 20.6899 6.73694 20.7729C7.02985 20.856 7.15538 21.1469 7.02985 21.4792C6.48587 23.0995 6.44403 24.7198 6.94616 26.2985C7.65752 28.542 9.12207 30.1623 11.2561 31.1594C11.4235 31.2425 11.5909 31.2841 11.8001 31.3672C12.093 31.4918 12.2604 31.7411 12.1349 32.0319C12.0512 32.2812 11.7583 32.4058 11.4654 32.2812C9.49867 31.5749 7.95043 30.3285 6.90432 28.542C6.73694 28.2928 6.61141 28.0435 6.52772 27.8357Z" fill="url(#paint2_linear_579_826)"/>
<path d="M11.5909 32.5304C11.5072 32.5304 11.4654 32.4889 11.3817 32.4889C9.37313 31.7411 7.78305 30.4531 6.6951 28.6667C6.61141 28.5005 6.48587 28.3343 6.40218 28.1681L6.27665 27.9604C5.23054 25.6754 5.06317 23.4319 5.85821 21.1053C5.9419 20.8976 6.06743 20.7314 6.19296 20.6483C6.36034 20.5652 6.56956 20.5237 6.77878 20.6068C6.94616 20.6483 7.11354 20.7729 7.19723 20.9391C7.28092 21.1053 7.28092 21.3546 7.19723 21.5623C6.65325 23.1411 6.61141 24.7198 7.11354 26.257C7.82489 28.4174 9.20576 30.0377 11.298 30.9932C11.4235 31.0348 11.5909 31.1179 11.7164 31.1594L11.8001 31.201C12.2185 31.3671 12.4278 31.7411 12.2604 32.115C12.2604 32.4058 11.9256 32.572 11.5909 32.5304ZM6.6951 27.7527L6.77878 27.9188C6.86247 28.085 6.94616 28.2512 7.07169 28.4174C8.1178 30.1208 9.6242 31.3671 11.549 32.0734C11.7164 32.1565 11.8838 32.0734 11.9256 31.9488C12.0093 31.6995 11.8001 31.6164 11.7164 31.5749L11.6327 31.5333C11.4654 31.4918 11.3398 31.4087 11.1724 31.3672C8.95469 30.3701 7.44829 28.6667 6.73694 26.3816C6.23481 24.7614 6.23481 23.0995 6.82063 21.3961C6.86247 21.2715 6.86247 21.1884 6.82063 21.1053C6.77878 21.0638 6.73694 21.0222 6.65325 20.9807C6.56956 20.9391 6.52772 20.9807 6.44403 20.9807C6.36034 21.0222 6.3185 21.1053 6.27665 21.1884C5.5653 23.4319 5.69083 25.5507 6.6951 27.7527Z" fill="url(#paint3_linear_579_826)"/>
<path d="M8.24334 26.9217C7.57383 25.5092 7.49014 23.8889 8.03411 22.2686C8.15965 21.9778 8.41071 21.8116 8.66178 21.8947C8.95469 21.9778 9.03838 22.2686 8.95469 22.5594C8.53625 23.7642 8.53625 24.9275 8.95469 26.1324C9.49867 27.6696 10.5448 28.7082 12.093 29.3314C12.1767 29.3729 12.2185 29.3729 12.3022 29.4145C12.5533 29.5391 12.6788 29.7884 12.5533 30.0377C12.4696 30.287 12.1767 30.4116 11.9256 30.3285C11.0051 29.9961 10.21 29.4976 9.49867 28.7913C8.99653 28.2928 8.61994 27.7111 8.24334 26.9217Z" fill="url(#paint4_linear_579_826)"/>
<path d="M12.0512 30.5362C12.0093 30.5362 11.9256 30.5362 11.8838 30.4947C10.9214 30.1623 10.0845 29.6222 9.37313 28.9159C8.82916 28.3758 8.41071 27.7942 8.03411 26.9633C7.32276 25.4676 7.28092 23.7643 7.82489 22.144C7.90858 21.9362 8.03411 21.7701 8.20149 21.687C8.36887 21.6039 8.53625 21.6039 8.74547 21.6454C9.12207 21.77 9.33129 22.1855 9.16391 22.601C8.78731 23.7643 8.78731 24.9275 9.16391 26.0077C9.70789 27.4618 10.7122 28.5005 12.1767 29.0821L12.2604 29.1237C12.3022 29.1237 12.3441 29.1652 12.4278 29.1652C12.7625 29.3314 12.9299 29.7053 12.8044 30.0792C12.637 30.4116 12.3441 30.5778 12.0512 30.5362ZM8.41071 26.8386C8.78731 27.5865 9.16391 28.1681 9.66605 28.6667C10.3356 29.3314 11.1306 29.83 12.0093 30.1208C12.1349 30.1623 12.3022 30.1208 12.3441 29.9546C12.3859 29.83 12.3441 29.6638 12.1767 29.6222C12.1349 29.6222 12.093 29.5807 12.0512 29.5807L11.9675 29.5391C10.3774 28.9159 9.28944 27.7942 8.70362 26.2155C8.24334 25.0106 8.24334 23.7643 8.66178 22.5179C8.70362 22.4348 8.74547 22.1855 8.4944 22.1024C8.41071 22.0609 8.36887 22.0609 8.28518 22.1024C8.20149 22.144 8.15965 22.2271 8.1178 22.3101C7.69936 23.8473 7.78305 25.4261 8.41071 26.8386Z" fill="url(#paint5_linear_579_826)"/>
<path d="M9.95895 26.1324C9.54051 25.1768 9.45682 24.2213 9.79158 23.1826C9.87527 22.8918 10.1682 22.7256 10.4192 22.8087C10.7122 22.8918 10.8377 23.1826 10.7122 23.4734C10.21 25.0106 10.9632 26.5894 12.4696 27.171C12.7625 27.2957 12.9299 27.5449 12.8044 27.8357C12.7207 28.085 12.4278 28.2097 12.093 28.085C11.1306 27.7527 10.4192 27.0879 9.95895 26.1324Z" fill="url(#paint6_linear_579_826)"/>
<path d="M12.2604 28.3758C12.1767 28.3758 12.1349 28.3343 12.0512 28.3343C11.0469 27.9604 10.2519 27.2541 9.74973 26.257C9.28944 25.2599 9.20576 24.1797 9.54051 23.1826C9.66604 22.7672 10.0845 22.5594 10.4611 22.6841C10.8377 22.8087 11.0469 23.2242 10.9214 23.6396C10.4611 25.0106 11.1306 26.4647 12.5533 27.0048C12.9717 27.171 13.181 27.5449 13.0136 27.9188C12.9299 28.2512 12.5951 28.4174 12.2604 28.3758ZM10.1682 26.0493C10.6285 26.9217 11.298 27.5865 12.2185 27.9188C12.3859 28.0019 12.5533 27.9188 12.637 27.7942C12.7207 27.628 12.5533 27.4618 12.4278 27.4203C10.7958 26.7971 10.0008 25.1353 10.5029 23.4319C10.5448 23.2242 10.5029 23.0995 10.3356 23.0164C10.1682 22.9749 10.0426 23.0995 9.95895 23.2657C9.66604 24.2213 9.74973 25.1353 10.1682 26.0493Z" fill="url(#paint7_linear_579_826)"/>
<path d="M11.5909 25.3845C11.4235 25.0522 11.3817 24.6783 11.5072 24.3043C11.5909 24.0551 11.842 23.8889 12.093 23.972C12.3441 24.0551 12.5115 24.3043 12.4278 24.5952C12.3441 24.9275 12.4278 25.0937 12.7207 25.2599C12.9717 25.3845 13.0973 25.6754 12.9717 25.9246C12.8462 26.1739 12.5951 26.2986 12.3022 26.1739C12.0512 26.0077 11.7583 25.7585 11.5909 25.3845Z" fill="url(#paint8_linear_579_826)"/>
<path d="M12.5115 26.3816C12.4278 26.3816 12.3859 26.3401 12.3022 26.3401C11.8838 26.1739 11.5909 25.8831 11.3817 25.5092C11.2143 25.0937 11.1724 24.6783 11.298 24.2628C11.4235 23.8889 11.8001 23.6812 12.1767 23.7643C12.5533 23.8889 12.7625 24.2628 12.6788 24.6367C12.637 24.8444 12.6788 24.9275 12.8462 25.0522C13.2228 25.2184 13.3902 25.6338 13.2228 25.9662C13.1391 26.257 12.8044 26.4232 12.5115 26.3816ZM11.8001 25.3015C11.9675 25.5923 12.1767 25.8 12.4696 25.9246C12.637 25.9662 12.8044 25.9246 12.8462 25.8C12.8881 25.6754 12.8462 25.5092 12.6788 25.4261C12.3022 25.2599 12.1349 24.9275 12.2604 24.5121C12.3022 24.3459 12.2185 24.2213 12.093 24.1797C11.9675 24.1382 11.8001 24.2213 11.7583 24.3874C11.6327 24.6783 11.6746 25.0106 11.8001 25.3015Z" fill="url(#paint9_linear_579_826)"/>
<path d="M70.3822 29.0406C70.3822 25.5092 72.3071 22.7256 74.7759 21.5624C75.1943 21.3546 75.7383 21.2715 76.2404 21.2715C77.0773 21.2715 77.9142 21.5624 78.1234 22.3933C78.6674 22.8503 78.8766 23.6812 78.8766 24.5121C78.8766 27.3788 76.7007 28.2512 74.6085 29.1653C74.0645 29.4145 73.4787 29.7054 72.8511 29.9131C72.9766 30.8686 73.395 31.6165 74.3575 31.6165C75.9057 31.6165 76.9936 30.8271 77.9142 30.1208L77.9561 30.1624C77.8305 30.5778 77.5376 31.5334 77.3284 31.9073C76.8263 32.6967 75.9894 33.2368 75.1525 33.6522C74.6504 33.7353 74.3575 33.8184 73.9809 33.8184C71.4284 33.8184 70.3822 31.4087 70.3822 29.0406ZM74.5248 27.9189C75.3199 27.2126 75.6128 26.3817 75.9894 25.1769C76.0312 24.9691 76.0731 24.8029 76.0731 24.5952C76.0731 24.4706 76.0731 24.3875 76.0312 24.2628C75.9894 24.0136 76.1986 24.2213 76.366 24.1798L76.5752 23.8474H76.4915C76.4915 23.8474 76.6589 23.7643 76.2823 23.8889C76.0312 23.8889 75.9057 24.0551 75.6965 24.1382C74.1482 24.9691 72.8092 26.8387 72.7674 28.9991C73.3532 28.6667 74.0227 28.3759 74.5248 27.9189Z" fill="url(#paint10_linear_579_826)"/>
<path d="M84.9022 26.5063C84.9022 26.2155 84.8604 25.9662 84.8604 25.717V25.2184C84.8604 25.1353 84.7767 25.0522 84.8604 25.0522C84.9022 25.0522 84.9859 25.0938 85.0278 25.0938V24.8445C84.9859 24.5121 84.9859 24.5537 84.9859 24.5537C84.9859 24.5121 85.0278 24.4706 85.0696 24.1798C85.781 24.3875 86.576 24.429 87.2037 24.7614C87.371 24.8445 87.2037 25.0938 87.2037 25.2599V25.7585C87.2037 26.0493 87.1618 26.3817 87.1618 26.7141C87.1618 28.2513 87.2037 30.1208 87.8313 31.201C87.915 31.0764 88.6264 29.7054 88.7938 29.4561C89.2959 28.1266 89.5051 26.6725 89.5051 25.2184C89.5051 24.0136 89.3377 24.1798 88.9611 23.1411C88.9193 23.0165 88.8774 22.8918 88.8774 22.8087C88.8774 22.5179 89.003 22.3102 89.1285 22.0194L89.1704 21.8116C89.3796 21.6455 89.5888 21.4793 89.798 21.3131C90.1746 21.4793 90.4257 21.5624 90.7186 21.8947C91.5136 22.8503 91.6392 23.0996 91.6392 24.4706V24.6783C91.6392 26.9218 91.2207 29.4145 90.3838 31.2426C89.8817 32.3643 89.0448 33.6938 87.664 33.6938C87.0363 33.6938 86.8271 33.4445 86.4086 33.1952C86.2412 32.9875 86.032 32.7798 85.8647 32.5305C85.2788 31.6165 85.0696 30.287 84.9441 28.916C84.4001 30.0793 83.8561 31.2841 83.2285 32.4058C82.8937 32.7382 82.6008 33.1121 82.015 33.1121C80.2575 33.1121 80.132 30.2039 80.132 28.1266V27.2542C80.132 25.8831 80.1738 24.4706 80.2993 23.3073C80.3412 23.0165 80.4249 22.4348 80.5086 22.2271H80.5504L82.9774 22.3933C83.0192 22.5179 83.0192 22.6426 83.0192 22.7672C83.0192 22.8918 82.9355 23.4735 82.9355 23.5566C82.7263 25.3846 82.5589 27.4619 82.5589 29.4561V30.2039C82.5589 30.6194 82.5589 30.9933 82.6426 31.3672C83.898 30.3285 84.6093 28.3343 84.9022 26.5063Z" fill="url(#paint11_linear_579_826)"/>
<path d="M108.419 23.972C107.247 25.5092 106.243 27.8358 105.908 30.287C105.783 31.1179 105.824 31.9488 105.741 32.7798V32.8213C105.741 33.1121 105.699 33.5691 105.28 33.5691C105.029 33.5691 104.611 33.5276 103.858 33.4445C103.607 33.4029 103.314 24.6783 103.272 24.0551C103.272 23.972 103.23 23.8474 103.23 23.7227C103.23 23.5981 103.272 23.4735 103.356 23.4319L105.615 22.7672C105.908 23.0996 105.95 23.7643 105.95 24.429V24.9276C105.95 25.1769 105.992 25.4261 105.992 25.6754V26.0078C106.368 24.429 106.787 22.8087 107.54 21.5208C107.917 21.1469 108.168 20.773 108.879 20.773C110.093 20.773 110.72 21.8116 110.72 23.0996C110.72 24.1382 110.218 24.3875 109.339 24.6783C108.963 24.5952 108.586 24.1798 108.419 23.972Z" fill="url(#paint12_linear_579_826)"/>
<path d="M118.545 33.1952C118.461 33.1952 118.378 33.1537 118.294 33.1537H118.252C117.122 33.1537 117.081 31.0764 117.081 29.7884V29.6223C116.578 31.1595 115.867 32.3227 114.779 33.3198C114.277 33.6107 114.068 33.8184 113.524 33.8184C111.39 33.8184 110.888 31.3256 110.888 29.2899C110.888 26.7971 111.85 24.3875 112.938 22.9749C113.482 22.2686 114.402 21.687 115.323 21.687C116.327 21.687 116.955 22.3517 117.29 23.3073C117.415 21.8947 117.415 19.0696 117.792 17.6986C117.876 17.3247 117.917 16.7846 118.378 16.7015H119.675C120.01 16.9508 120.01 17.3662 120.01 17.9063C120.01 19.3189 119.549 22.144 119.382 23.515C119.215 25.3846 119.131 27.2542 119.131 29.0822V30.6609C119.131 31.1595 119.215 31.658 119.215 32.1566C119.215 32.7798 118.964 32.9875 118.545 33.1952ZM114.361 31.6165C115.03 31.1595 115.574 30.6194 116.076 29.9962C116.411 29.5392 116.829 29.0406 116.997 28.5005C117.122 28.0435 116.997 27.5034 116.955 27.0464C116.871 26.5063 116.746 26.0078 116.578 25.4677C116.495 25.2184 116.411 24.9691 116.244 24.7614C116.16 24.6368 116.076 24.5537 115.951 24.4706C115.867 24.429 115.783 24.3875 115.7 24.3459C115.407 24.2628 115.114 24.5121 114.946 24.7199C114.821 24.886 114.737 25.0522 114.612 25.2184C114.361 25.5923 114.151 26.0078 113.984 26.4648C113.607 27.4203 113.356 28.4174 113.356 29.4561C113.356 30.287 113.566 31.0764 113.9 31.7827C113.984 31.6996 114.277 31.658 114.361 31.6165Z" fill="url(#paint13_linear_579_826)"/>
<path d="M126.328 26.6725C126.328 26.3817 126.286 26.1324 126.286 25.8831V25.343C126.286 25.2599 126.203 25.1769 126.286 25.1769C126.328 25.1769 126.412 25.2184 126.454 25.2184V24.9691C126.412 24.6368 126.412 24.6783 126.412 24.6783C126.412 24.6368 126.454 24.5952 126.496 24.3044C127.207 24.5121 128.002 24.5537 128.63 24.886C128.797 24.9691 128.63 25.2184 128.63 25.3846V25.8831C128.63 26.174 128.588 26.5063 128.588 26.8387C128.588 28.3759 128.63 30.2455 129.257 31.3256C129.341 31.201 130.052 29.83 130.22 29.5807C130.722 28.2512 130.931 26.7971 130.931 25.343C130.931 24.1382 130.303 19.6513 129.927 18.5711C129.885 18.4464 129.843 18.3218 129.843 18.2387C129.843 17.9479 129.969 17.7401 130.094 17.4493L130.136 17.2416C130.345 17.0754 130.554 16.9092 130.764 16.743C131.14 16.9092 131.391 16.9923 131.684 17.3247C132.479 18.2802 133.065 23.2242 133.065 24.5952V24.8029C133.065 27.0464 132.647 29.5392 131.81 31.3672C131.308 32.4889 130.471 33.8184 129.09 33.8184C128.462 33.8184 128.253 33.5691 127.835 33.3198C127.667 33.1121 127.458 32.9044 127.291 32.6551C126.705 31.7411 126.496 30.4116 126.37 29.0406C125.826 30.2039 125.282 31.4087 124.654 32.5305C124.32 32.8628 124.027 33.2368 123.441 33.2368C121.683 33.2368 121.558 30.3285 121.558 28.2513V27.4203C121.558 26.0493 121.6 24.6368 121.725 23.4735C121.767 23.1827 121.851 22.601 121.934 22.3933H121.976L124.403 22.5595C124.445 22.6841 124.445 22.8087 124.445 22.9334C124.445 23.058 124.361 23.6397 124.361 23.7227C124.152 25.5508 123.985 27.6281 123.985 29.6223V30.3701C123.985 30.7856 123.985 31.1595 124.069 31.5334C125.324 30.4532 125.993 28.5005 126.328 26.6725Z" fill="url(#paint14_linear_579_826)"/>
<path d="M146.33 33.6522C146.246 33.6522 146.162 33.6107 146.079 33.6107H146.037C144.907 33.6107 144.865 31.5334 144.865 30.2455V29.9131C144.865 26.0078 145.033 20.8145 145.577 17.2831C145.66 16.9092 145.702 16.3691 146.162 16.286H147.46C147.794 16.5353 147.794 16.9508 147.794 17.4909C147.794 19.1942 147.376 22.3102 147.167 23.972C146.999 25.8416 146.916 27.7112 146.916 29.5392V31.1179C146.916 31.6165 146.999 32.115 146.999 32.6136C146.999 33.2783 146.748 33.4445 146.33 33.6522Z" fill="url(#paint15_linear_579_826)"/>
<path d="M148.506 29.0406C148.506 25.5092 150.43 22.7256 152.899 21.5624C153.318 21.3546 153.862 21.2715 154.364 21.2715C155.201 21.2715 156.038 21.5624 156.247 22.3933C156.791 22.8503 157 23.6812 157 24.5121C157 27.3788 154.824 28.2512 152.732 29.1653C152.188 29.4145 151.602 29.7054 150.974 29.9131C151.1 30.8686 151.518 31.6165 152.481 31.6165C154.029 31.6165 155.117 30.8271 156.038 30.1208L156.079 30.1624C155.954 30.5778 155.661 31.5334 155.452 31.9073C154.95 32.6967 154.113 33.2368 153.276 33.6522C152.774 33.7353 152.481 33.8184 152.104 33.8184C149.594 33.8184 148.506 31.4087 148.506 29.0406ZM152.648 27.9189C153.443 27.2126 153.736 26.3817 154.113 25.1769C154.155 24.9691 154.196 24.8029 154.196 24.5952C154.196 24.4706 154.196 24.3875 154.155 24.2628C154.113 24.0136 154.322 24.2213 154.489 24.1798L154.699 23.8474H154.615C154.615 23.8474 154.782 23.7643 154.406 23.8889C154.155 23.8889 154.029 24.0551 153.82 24.1382C152.272 24.9691 150.933 26.8387 150.891 28.9991C151.518 28.6667 152.146 28.3759 152.648 27.9189Z" fill="url(#paint16_linear_579_826)"/>
<path d="M100.97 23.515C101.012 23.4319 101.054 23.3073 101.138 23.2242C101.222 23.0996 101.347 22.9749 101.431 22.8503C101.473 22.8087 101.473 22.7672 101.473 22.6841C101.431 22.5179 99.3385 22.0194 99.3804 21.9363C99.2967 22.1855 99.1712 22.4348 99.0456 22.6426C98.9619 22.8087 98.7946 23.0165 98.7946 23.1827C98.4598 22.3102 97.8321 21.6039 96.8279 21.6039C95.9073 21.6039 94.9867 22.2271 94.4427 22.8918C93.3129 24.3044 92.3924 26.7141 92.3924 29.2068C92.3924 31.2426 92.8945 33.7353 95.0286 33.7353C95.6144 33.7353 95.7818 33.5691 96.2839 33.2368C97.33 32.2397 98.0414 31.1179 98.5853 29.5392V29.7054C98.5853 30.9933 98.6272 33.0706 99.757 33.0706H99.7988C99.8825 33.0706 99.9662 33.1121 100.05 33.1121C100.51 32.9044 100.719 32.7382 100.719 32.0735C100.719 31.5749 100.636 31.0764 100.636 30.5778V29.0822C100.636 28.0851 100.678 27.0464 100.719 26.0493C100.761 25.4677 100.803 24.886 100.803 24.3044C100.845 24.0136 100.845 23.7643 100.97 23.515ZM98.5016 28.459C98.3343 28.9991 97.9158 29.5392 97.5811 29.9546C97.1208 30.5778 96.535 31.1595 95.8655 31.5749C95.7818 31.6165 95.4889 31.6996 95.447 31.7411C95.1541 31.0348 94.903 30.2455 94.903 29.4145C94.903 28.3759 95.1541 27.3788 95.5307 26.4232C95.6981 26.0078 95.9073 25.5923 96.1584 25.1769C96.2839 25.0107 96.3676 24.8445 96.4931 24.6783C96.6605 24.4706 96.9534 24.2213 97.2463 24.3044C97.33 24.3459 97.4137 24.3875 97.4974 24.429C97.6229 24.5121 97.7066 24.5952 97.7903 24.7199C97.9158 24.9276 98.0414 25.1769 98.125 25.4261C98.2924 25.9247 98.418 26.4648 98.5016 27.0049C98.5016 27.4619 98.6272 28.002 98.5016 28.459Z" fill="url(#paint17_linear_579_826)"/>
<path d="M143.024 23.3904C143.066 23.3073 143.108 23.1827 143.191 23.0996C143.275 22.9749 143.401 22.8503 143.484 22.7256C143.526 22.6841 143.526 22.6426 143.526 22.5595C143.484 22.3933 141.392 21.8947 141.434 21.8116C141.35 22.0609 141.225 22.3102 141.099 22.5179C141.016 22.6841 140.848 22.8918 140.848 23.058C140.513 22.1856 139.886 21.4793 138.881 21.4793C137.961 21.4793 137.04 22.1025 136.496 22.7672C135.367 24.1798 134.446 26.5894 134.446 29.0822C134.446 31.1179 134.948 33.6107 137.082 33.6107C137.668 33.6107 137.835 33.4445 138.337 33.1121C139.384 32.115 140.095 30.9933 140.639 29.4145V29.5807C140.639 30.8686 140.681 32.9459 141.811 32.9459H141.852C141.936 32.9459 142.02 32.9875 142.103 32.9875C142.564 32.7798 142.773 32.6136 142.773 31.9488C142.773 31.4503 142.689 30.9517 142.689 30.4532V28.8744C142.689 27.8773 142.731 26.8387 142.773 25.8416C142.815 25.2599 142.857 24.6783 142.857 24.0967C142.898 23.9305 142.94 23.6397 143.024 23.3904ZM140.555 28.3759C140.388 28.916 139.969 29.4561 139.635 29.8715C139.174 30.4947 138.589 31.0764 137.919 31.4918C137.835 31.5334 137.542 31.6165 137.501 31.658C137.208 30.9517 136.957 30.1624 136.957 29.3314C136.957 28.2928 137.208 27.2957 137.584 26.3401C137.752 25.9247 137.961 25.5092 138.212 25.0938C138.337 24.9276 138.421 24.7614 138.547 24.5952C138.714 24.3875 139.007 24.1382 139.3 24.2213C139.384 24.2628 139.467 24.3044 139.551 24.3459C139.676 24.429 139.76 24.5121 139.844 24.6368C139.969 24.8445 140.095 25.0938 140.179 25.343C140.346 25.8416 140.472 26.3817 140.555 26.9218C140.555 27.3788 140.681 27.9189 140.555 28.3759Z" fill="url(#paint18_linear_579_826)"/>
<path d="M63.9801 22.8087C64.6077 22.6426 65.2354 22.3933 65.863 22.0194C66.6581 21.5624 67.3276 20.9807 67.9553 20.316C68.5829 19.6513 69.0432 18.9034 69.4617 18.0725C69.8383 17.2416 70.0475 16.4107 70.0475 15.4967C70.0475 15.1227 69.8801 14.6242 69.5454 13.9179C69.2106 13.2532 68.7503 12.5469 68.1645 11.8822C66.8255 10.3865 64.8588 9.34787 62.8503 9.18169C61.3857 9.05705 59.7956 9.18169 58.3729 9.51405C57.1176 9.80487 55.9041 10.345 54.7743 10.9682C54.0629 11.3421 53.4353 11.8406 52.8495 12.3807C51.9289 13.2532 50.7154 14.2503 50.9665 15.6628C51.092 16.4522 51.636 17.0754 52.2218 17.657C52.4729 17.9063 52.8076 18.3633 53.1842 18.2387C53.77 18.0725 53.5608 16.9508 53.519 16.5353C53.3097 15.2889 53.0587 14.4996 54.0629 13.544C54.4395 13.2116 58.1637 10.9266 58.2055 12.3392C58.2055 12.5054 58.1637 12.63 58.1218 12.7546C57.9126 13.3363 57.7871 13.9179 57.6616 14.5411C57.4942 15.4551 57.3686 16.4522 57.285 17.4909C57.2013 18.5711 57.1176 19.6513 57.0757 20.8145C57.0339 21.9778 56.9921 23.058 56.9502 24.1798C56.9084 25.2599 56.9084 26.2986 56.9084 27.2126V30.2039C56.9084 30.9102 56.9084 31.4918 56.9502 31.9488C56.9921 32.4058 57.0339 32.7798 57.1176 33.0706C57.2013 33.3614 57.3268 33.5691 57.4523 33.6938C57.5779 33.8184 57.7871 33.8599 57.9963 33.8599H58.5821C58.875 33.8599 59.168 33.8599 59.4609 33.8184C59.7538 33.7769 60.0885 33.7353 60.3814 33.6522C60.6744 33.5691 60.8836 33.486 61.0509 33.3198C60.758 33.2368 60.5907 33.0706 60.5488 32.8628C60.507 32.6551 60.507 32.5305 60.507 32.4058V25.5508C60.507 24.8029 60.5488 24.3459 60.5907 24.1382C60.5907 23.8889 61.1765 23.9305 61.302 23.9305C61.8041 23.9305 62.3063 23.8889 62.8084 24.0136C62.9758 24.0551 63.3524 24.0967 63.4779 24.1798C63.6871 24.3044 63.7708 24.5121 63.8545 24.7199C64.0219 25.0107 64.1056 25.343 64.1893 25.6754C64.3148 26.257 64.3567 26.8802 64.3985 27.5034C64.4822 28.5005 64.6496 29.83 64.8588 31.4087C64.9843 32.2812 65.2772 32.8628 65.6957 33.1952C66.156 33.5276 66.7418 33.7353 67.495 33.7353C68.29 33.7353 68.9177 33.5691 69.378 33.2368C69.8383 32.9044 70.0893 32.4889 70.0893 32.0319C70.0893 31.9488 70.0893 31.8657 70.0893 31.8242C70.0893 31.7827 70.0475 31.6996 70.0475 31.658C69.8801 31.9073 69.7546 32.0735 69.5872 32.1981C69.4617 32.2812 69.2524 32.3643 69.0014 32.3643C68.7503 32.3643 68.5829 32.1981 68.4574 31.9073C68.3319 31.6165 68.2482 31.2426 68.1645 30.744C68.0808 30.287 68.039 29.7469 67.9971 29.1653C67.9553 28.5836 67.9134 28.002 67.8716 27.4203C67.8297 26.8387 67.7042 26.2986 67.5787 25.7585C67.4531 25.2599 67.2858 24.8445 67.0347 24.5121C66.4489 23.7643 65.4865 23.3073 64.6077 22.9749M61.4694 21.7285C61.0091 21.7285 60.7162 21.687 60.6325 21.6039C60.5488 21.5208 60.4651 21.3131 60.4651 20.9807V13.1701C60.4651 12.5885 60.5488 12.173 60.6744 11.9237C60.7999 11.6744 60.9673 11.5083 61.1765 11.5083C61.6368 11.4667 61.9297 11.4667 62.0552 11.4667H62.39C63.8545 11.4667 65.0262 11.7575 65.9467 12.3392C66.8673 12.9208 67.3276 13.7933 67.3276 14.9566C67.3276 15.5798 67.1602 16.2445 66.8255 17.0339C66.4907 17.8232 66.0723 18.5711 65.5283 19.2773C64.9843 19.9836 64.3985 20.5653 63.6871 21.0638C62.9758 21.4793 62.2226 21.7285 61.4694 21.7285Z" fill="url(#paint19_linear_579_826)"/>
</g>
<defs>
<linearGradient id="paint0_linear_579_826" x1="-3.36496e-07" y1="4.67392" x2="49.8677" y2="6.44378" gradientUnits="userSpaceOnUse">
<stop stop-color="#C84AD6"/>
<stop offset="1" stop-color="#6F3CE3"/>
</linearGradient>
<linearGradient id="paint1_linear_579_826" x1="-3.36496e-07" y1="4.67392" x2="49.8677" y2="6.44378" gradientUnits="userSpaceOnUse">
<stop stop-color="#C84AD6"/>
<stop offset="1" stop-color="#6F3CE3"/>
</linearGradient>
<linearGradient id="paint2_linear_579_826" x1="-3.36496e-07" y1="4.67392" x2="49.8677" y2="6.44378" gradientUnits="userSpaceOnUse">
<stop stop-color="#C84AD6"/>
<stop offset="1" stop-color="#6F3CE3"/>
</linearGradient>
<linearGradient id="paint3_linear_579_826" x1="-3.36496e-07" y1="4.67392" x2="49.8677" y2="6.44378" gradientUnits="userSpaceOnUse">
<stop stop-color="#C84AD6"/>
<stop offset="1" stop-color="#6F3CE3"/>
</linearGradient>
<linearGradient id="paint4_linear_579_826" x1="-3.36496e-07" y1="4.67392" x2="49.8677" y2="6.44378" gradientUnits="userSpaceOnUse">
<stop stop-color="#C84AD6"/>
<stop offset="1" stop-color="#6F3CE3"/>
</linearGradient>
<linearGradient id="paint5_linear_579_826" x1="-3.36496e-07" y1="4.67392" x2="49.8677" y2="6.44378" gradientUnits="userSpaceOnUse">
<stop stop-color="#C84AD6"/>
<stop offset="1" stop-color="#6F3CE3"/>
</linearGradient>
<linearGradient id="paint6_linear_579_826" x1="-3.36496e-07" y1="4.67392" x2="49.8677" y2="6.44378" gradientUnits="userSpaceOnUse">
<stop stop-color="#C84AD6"/>
<stop offset="1" stop-color="#6F3CE3"/>
</linearGradient>
<linearGradient id="paint7_linear_579_826" x1="-3.36496e-07" y1="4.67392" x2="49.8677" y2="6.44378" gradientUnits="userSpaceOnUse">
<stop stop-color="#C84AD6"/>
<stop offset="1" stop-color="#6F3CE3"/>
</linearGradient>
<linearGradient id="paint8_linear_579_826" x1="-3.36496e-07" y1="4.67392" x2="49.8677" y2="6.44378" gradientUnits="userSpaceOnUse">
<stop stop-color="#C84AD6"/>
<stop offset="1" stop-color="#6F3CE3"/>
</linearGradient>
<linearGradient id="paint9_linear_579_826" x1="-3.36496e-07" y1="4.67392" x2="49.8677" y2="6.44378" gradientUnits="userSpaceOnUse">
<stop stop-color="#C84AD6"/>
<stop offset="1" stop-color="#6F3CE3"/>
</linearGradient>
<linearGradient id="paint10_linear_579_826" x1="50.933" y1="11.8219" x2="170.375" y2="29.8596" gradientUnits="userSpaceOnUse">
<stop stop-color="#C84AD6"/>
<stop offset="1" stop-color="#6F3CE3"/>
</linearGradient>
<linearGradient id="paint11_linear_579_826" x1="50.933" y1="11.8219" x2="170.375" y2="29.8596" gradientUnits="userSpaceOnUse">
<stop stop-color="#C84AD6"/>
<stop offset="1" stop-color="#6F3CE3"/>
</linearGradient>
<linearGradient id="paint12_linear_579_826" x1="50.933" y1="11.8219" x2="170.375" y2="29.8596" gradientUnits="userSpaceOnUse">
<stop stop-color="#C84AD6"/>
<stop offset="1" stop-color="#6F3CE3"/>
</linearGradient>
<linearGradient id="paint13_linear_579_826" x1="50.933" y1="11.8219" x2="170.375" y2="29.8596" gradientUnits="userSpaceOnUse">
<stop stop-color="#C84AD6"/>
<stop offset="1" stop-color="#6F3CE3"/>
</linearGradient>
<linearGradient id="paint14_linear_579_826" x1="50.933" y1="11.8219" x2="170.375" y2="29.8596" gradientUnits="userSpaceOnUse">
<stop stop-color="#C84AD6"/>
<stop offset="1" stop-color="#6F3CE3"/>
</linearGradient>
<linearGradient id="paint15_linear_579_826" x1="50.933" y1="11.8219" x2="170.375" y2="29.8596" gradientUnits="userSpaceOnUse">
<stop stop-color="#C84AD6"/>
<stop offset="1" stop-color="#6F3CE3"/>
</linearGradient>
<linearGradient id="paint16_linear_579_826" x1="50.933" y1="11.8219" x2="170.375" y2="29.8596" gradientUnits="userSpaceOnUse">
<stop stop-color="#C84AD6"/>
<stop offset="1" stop-color="#6F3CE3"/>
</linearGradient>
<linearGradient id="paint17_linear_579_826" x1="50.933" y1="11.8219" x2="170.375" y2="29.8596" gradientUnits="userSpaceOnUse">
<stop stop-color="#C84AD6"/>
<stop offset="1" stop-color="#6F3CE3"/>
</linearGradient>
<linearGradient id="paint18_linear_579_826" x1="50.933" y1="11.8219" x2="170.375" y2="29.8596" gradientUnits="userSpaceOnUse">
<stop stop-color="#C84AD6"/>
<stop offset="1" stop-color="#6F3CE3"/>
</linearGradient>
<linearGradient id="paint19_linear_579_826" x1="50.933" y1="11.8219" x2="170.375" y2="29.8596" gradientUnits="userSpaceOnUse">
<stop stop-color="#C84AD6"/>
<stop offset="1" stop-color="#6F3CE3"/>
</linearGradient>
<clipPath id="clip0_579_826">
<rect width="157" height="43" fill="white"/>
</clipPath>
</defs>
</svg>
