<svg width="206" height="43" viewBox="0 0 206 43" fill="none" xmlns="http://www.w3.org/2000/svg">
<path fill-rule="evenodd" clip-rule="evenodd" d="M11.8265 0.743042H30.9698L32.0706 3.65227V10.0627H31.4926V6.45046H10.2524V35.2039H31.8549V35.7818H10.2524V40.8681L11.6042 42.2843H30.095L31.9983 40.8404V30.436H32.5763V41.1274L30.2894 42.8623H11.3569L9.6744 41.0997V2.17779L11.8265 0.743042ZM10.2524 5.87249H31.4926V3.75796L30.5705 1.32101H12.0015L10.2524 2.48711V5.87249ZM3.31793 12.8813L4.54611 14.1094L3.8959 14.6874L3.31793 15.3376L2.73997 16.1323L2.23425 17.216L1.94526 18.3719V19.6724V21.4063L2.23425 22.7067L3.02895 24.0071L4.32937 25.5965L3.31793 26.9692L2.45098 26.319L1.43954 24.9463L0.500349 23.3569L-0.00537109 21.9842V19.6724L0.211366 17.216L1.00607 15.3376L2.23425 13.8205L3.31793 12.8813ZM5.63056 15.8427L6.71425 16.8541L6.20853 17.5044L5.63056 18.4436L5.48607 19.166V20.1775L5.70281 21.1889L6.20853 21.9114L6.71425 22.8505L5.70281 24.151L5.26933 23.9342L4.61912 23.2118L4.1134 22.6338L3.67992 21.7669V20.6109V19.3105L4.1134 17.7211L4.47463 17.0709L5.63056 15.8427ZM20.2197 14.8795H22.8205L23.3262 15.4574L24.2654 14.8795H27.372L28.5279 15.8187V16.7579L27.9499 18.2028L26.8663 19.5754L24.2654 20.8759L24.9879 21.3093L25.4936 22.4653L25.2046 23.8379L24.6989 25.0661L24.2654 25.8608C24.145 26.198 24.0631 26.7711 24.6989 26.3665C25.3347 25.962 26.1197 25.331 26.4328 25.0661L27.372 24.2714L27.8777 24.9216L25.8548 27.089L23.8319 27.9559H21.7368L21.3033 26.8L21.5923 25.7886L22.3148 24.2714L22.8205 23.1155L22.6038 22.0318C22.4593 21.5502 21.9969 20.7314 21.3033 21.3093C20.6098 21.8873 19.0878 25.9812 18.4135 27.9559H15.3069L20.2197 17.4081L20.4364 16.3244L20.0029 15.8187L17.8355 16.1076V14.8795H20.2197Z" fill="url(#paint0_linear_207_1296)"/>
<path d="M22.9707 18.0834L22.2483 19.6006L23.8377 19.0226L25.2826 17.8667L25.8606 16.7108L26.0051 15.5548L25.2826 15.1936L24.2712 15.5548L23.4765 16.8553L22.9707 18.0834Z" fill="white"/>
<path d="M60.185 34.8598C58.4877 34.8598 57.6391 34.1309 57.6391 32.673C57.6391 32.1942 57.7044 31.6502 57.8349 31.041C57.9872 30.4099 58.194 29.6048 58.4551 28.6256C58.7597 27.6029 58.9882 26.7325 59.1405 26.0145C59.2928 25.2964 59.369 24.6545 59.369 24.0887C59.369 22.6091 58.7162 21.8692 57.4106 21.8692C57.0624 21.8692 56.7034 21.9128 56.3335 21.9998L53.7223 34.3049H49.0222L53.4612 13.5461L58.2919 12.8934L56.6925 20.4331H56.9536C57.8023 20.4331 58.5856 20.1393 59.3037 19.5518C60.0218 18.9643 60.5766 18.2354 60.9683 17.365C61.3818 16.4728 61.5885 15.6024 61.5885 14.7538C61.5885 13.7529 61.2838 12.9369 60.6746 12.3058C60.087 11.653 59.1949 11.3267 57.9981 11.3267C56.2356 11.3267 54.6906 11.6422 53.3633 12.2732C52.0359 12.9042 51.0024 13.8181 50.2625 15.0149C49.5445 16.2117 49.1854 17.6261 49.1854 19.2581C49.1854 20.0632 49.2616 20.6289 49.4139 20.9553C49.5662 21.26 49.6424 21.434 49.6424 21.4776C48.4674 21.4776 47.5861 21.2382 46.9986 20.7595C46.4328 20.259 46.1499 19.443 46.1499 18.3115C46.1499 16.9189 46.7157 15.5698 47.8472 14.2642C49.0005 12.9369 50.4692 11.8706 52.2535 11.0655C54.0378 10.2387 55.8221 9.82523 57.6064 9.82523C59.2384 9.82523 60.6093 10.0646 61.719 10.5433C62.8288 11.022 63.6556 11.6639 64.1996 12.469C64.7436 13.2524 65.0156 14.1119 65.0156 15.0476C65.0156 16.0703 64.7001 17.093 64.0691 18.1157C63.438 19.1384 62.5785 19.9761 61.4906 20.6289C62.3174 20.8683 62.8941 21.2709 63.2205 21.8366C63.5686 22.3806 63.7427 23.066 63.7427 23.8929C63.7427 24.5239 63.6665 25.1985 63.5142 25.9166C63.3619 26.6129 63.1443 27.4833 62.8614 28.5277C62.6873 29.2023 62.5241 29.8659 62.3718 30.5187C62.2195 31.1715 62.1433 31.7155 62.1433 32.1507C62.1433 32.6512 62.2521 33.0973 62.4697 33.4889C62.7091 33.8806 63.0246 34.1526 63.4163 34.3049C62.0889 34.6748 61.0118 34.8598 60.185 34.8598ZM70.2244 34.5008C68.6142 34.5008 67.363 34.0873 66.4709 33.2605C65.5787 32.4118 65.1327 31.0954 65.1327 29.3111C65.1327 27.8097 65.4264 26.1559 66.0139 24.3499C66.6015 22.5438 67.5589 20.988 68.8862 19.6824C70.2136 18.355 71.8999 17.6914 73.9454 17.6914C76.3389 17.6914 77.5357 18.7358 77.5357 20.8248C77.5357 22.0433 77.1876 23.1639 76.4913 24.1867C75.7949 25.2094 74.8702 26.0362 73.7169 26.6673C72.5636 27.2765 71.3342 27.6247 70.0286 27.7117C69.9851 28.3645 69.9633 28.7997 69.9633 29.0173C69.9633 30.0835 70.1483 30.8125 70.5182 31.2042C70.8881 31.5741 71.4865 31.759 72.3134 31.759C73.4884 31.759 74.4894 31.487 75.3162 30.9431C76.1649 30.3991 77.0896 29.5722 78.0906 28.4624H79.2003C76.785 32.488 73.793 34.5008 70.2244 34.5008ZM70.2897 26.145C71.0948 26.1015 71.8564 25.8186 72.5745 25.2964C73.3143 24.7742 73.9018 24.1105 74.337 23.3054C74.794 22.5003 75.0225 21.6516 75.0225 20.7595C75.0225 19.8673 74.7505 19.4213 74.2065 19.4213C73.4231 19.4213 72.6507 20.1067 71.8891 21.4776C71.1492 22.8484 70.6161 24.4043 70.2897 26.145ZM81.315 34.5008C80.2706 34.5008 79.4219 34.1744 78.7691 33.5216C78.1381 32.8688 77.8226 31.8896 77.8226 30.584C77.8226 30.04 77.9096 29.3328 78.0837 28.4624L80.3032 17.9851H85.0033L82.6532 29.0826C82.588 29.3437 82.5553 29.6157 82.5553 29.8986C82.5553 30.856 82.8817 31.3347 83.5345 31.3347C84.1438 31.3347 84.666 31.0845 85.1012 30.584C85.5364 30.0618 85.8846 29.3546 86.1457 28.4624L88.3652 17.9851H93.0653L90.7152 29.0826C90.6064 29.6266 90.552 30.0183 90.552 30.2576C90.552 30.9757 90.9219 31.3347 91.6618 31.3347C92.6627 31.3347 93.5875 30.7037 94.4361 29.4416C95.3065 28.1796 96.0028 26.6781 96.5251 24.9374C97.0473 23.1966 97.3084 21.6952 97.3084 20.4331C97.2649 20.5419 97.1235 20.6289 96.8841 20.6942C96.6448 20.7377 96.438 20.7595 96.264 20.7595C95.894 20.7595 95.6003 20.5854 95.3827 20.2373C95.1869 19.8891 95.0889 19.5083 95.0889 19.0949C95.0889 18.5726 95.2521 18.1483 95.5785 17.8219C95.9267 17.4955 96.438 17.3323 97.1126 17.3323C97.8307 17.3323 98.3529 17.6043 98.6793 18.1483C99.0057 18.6706 99.1689 19.3451 99.1689 20.172C99.1689 22.1304 98.8316 24.2302 98.1571 26.4714C97.4825 28.6909 96.4489 30.584 95.0563 32.1507C93.6637 33.7174 91.9338 34.5008 89.8666 34.5008C88.8004 34.5008 87.93 34.2723 87.2554 33.8153C86.5809 33.3584 86.1457 32.673 85.9498 31.759C84.7313 33.5869 83.1864 34.5008 81.315 34.5008ZM103.58 34.5008C102.339 34.5008 101.306 34.0765 100.479 33.2278C99.6519 32.3792 99.2385 31.0519 99.2385 29.2458C99.2385 27.6356 99.554 25.9492 100.185 24.1867C100.838 22.4024 101.795 20.9009 103.057 19.6824C104.341 18.4421 105.864 17.8219 107.627 17.8219C108.519 17.8219 109.183 17.9743 109.618 18.2789C110.053 18.5835 110.271 18.9861 110.271 19.4866V19.715L110.63 17.9851H115.33L112.98 29.0826C112.893 29.409 112.849 29.7571 112.849 30.1271C112.849 31.0627 113.295 31.5306 114.187 31.5306C114.797 31.5306 115.319 31.2477 115.754 30.6819C116.211 30.1162 116.57 29.3764 116.831 28.4624H118.202C117.397 30.8125 116.396 32.4118 115.199 33.2605C114.024 34.0873 112.838 34.5008 111.642 34.5008C110.728 34.5008 109.988 34.2505 109.422 33.7501C108.878 33.2278 108.552 32.4771 108.443 31.4979C107.812 32.3901 107.105 33.119 106.321 33.6848C105.56 34.2288 104.646 34.5008 103.58 34.5008ZM105.701 31.3347C106.245 31.3347 106.778 31.0845 107.3 30.584C107.844 30.0618 108.214 29.3546 108.41 28.4624L109.977 21.0859C109.977 20.803 109.868 20.531 109.651 20.2699C109.433 19.987 109.096 19.8456 108.639 19.8456C107.768 19.8456 106.985 20.3569 106.289 21.3796C105.592 22.3806 105.048 23.5991 104.657 25.0353C104.265 26.4497 104.069 27.7009 104.069 28.7888C104.069 29.8768 104.221 30.5731 104.526 30.8778C104.853 31.1824 105.244 31.3347 105.701 31.3347ZM119.063 17.9851H123.763L123.339 20.0088C124.078 19.356 124.742 18.8555 125.33 18.5074C125.939 18.1592 126.592 17.9851 127.288 17.9851C127.984 17.9851 128.528 18.2245 128.92 18.7032C129.333 19.1819 129.54 19.7585 129.54 20.4331C129.54 21.0641 129.333 21.619 128.92 22.0977C128.506 22.5764 127.93 22.8158 127.19 22.8158C126.711 22.8158 126.385 22.707 126.211 22.4894C126.058 22.25 125.939 21.9128 125.852 21.4776C125.786 21.1947 125.721 20.988 125.656 20.8574C125.591 20.7269 125.471 20.6616 125.297 20.6616C124.84 20.6616 124.448 20.7595 124.122 20.9553C123.817 21.1294 123.415 21.4449 122.914 21.9019L120.303 34.3049H115.603L119.063 17.9851ZM133.032 34.5008C131.791 34.5008 130.758 34.0765 129.931 33.2278C129.104 32.3792 128.691 31.0519 128.691 29.2458C128.691 27.6356 129.006 25.9492 129.637 24.1867C130.29 22.4024 131.247 20.9009 132.509 19.6824C133.793 18.4421 135.316 17.8219 137.079 17.8219C137.971 17.8219 138.635 17.9743 139.07 18.2789C139.505 18.5835 139.723 18.9861 139.723 19.4866V19.6171L141.322 12.11L146.153 11.4572L142.399 29.0826C142.312 29.409 142.269 29.7571 142.269 30.1271C142.269 30.5623 142.367 30.8778 142.562 31.0736C142.78 31.2477 143.128 31.3347 143.607 31.3347C144.216 31.3347 144.738 31.0736 145.174 30.5514C145.631 30.0291 145.99 29.3328 146.251 28.4624H147.622C146.294 32.3574 144.107 34.3049 141.061 34.3049C140.169 34.3049 139.44 34.0656 138.874 33.5869C138.33 33.1081 137.993 32.4118 137.862 31.4979C137.297 32.3683 136.611 33.0864 135.806 33.6521C135.023 34.2179 134.098 34.5008 133.032 34.5008ZM135.153 31.3347C135.676 31.3347 136.198 31.0954 136.72 30.6167C137.264 30.1379 137.634 29.4743 137.83 28.6256V28.4624L139.429 20.988C139.233 20.2264 138.787 19.8456 138.091 19.8456C137.22 19.8456 136.437 20.3569 135.741 21.3796C135.044 22.3806 134.5 23.5991 134.109 25.0353C133.717 26.4497 133.521 27.7009 133.521 28.7888C133.521 29.8768 133.674 30.5731 133.978 30.8778C134.305 31.1824 134.696 31.3347 135.153 31.3347ZM149.495 34.5008C148.45 34.5008 147.602 34.1744 146.949 33.5216C146.318 32.8688 146.002 31.8896 146.002 30.584C146.002 30.04 146.089 29.3328 146.263 28.4624L148.483 17.9851H153.183L150.833 29.0826C150.768 29.3437 150.735 29.6157 150.735 29.8986C150.735 30.856 151.062 31.3347 151.714 31.3347C152.324 31.3347 152.846 31.0845 153.281 30.584C153.716 30.0618 154.064 29.3546 154.325 28.4624L156.545 17.9851H161.245L158.895 29.0826C158.786 29.6266 158.732 30.0183 158.732 30.2576C158.732 30.9757 159.102 31.3347 159.842 31.3347C160.843 31.3347 161.767 30.7037 162.616 29.4416C163.486 28.1796 164.183 26.6781 164.705 24.9374C165.227 23.1966 165.488 21.6952 165.488 20.4331C165.445 20.5419 165.303 20.6289 165.064 20.6942C164.825 20.7377 164.618 20.7595 164.444 20.7595C164.074 20.7595 163.78 20.5854 163.562 20.2373C163.367 19.8891 163.269 19.5083 163.269 19.0949C163.269 18.5726 163.432 18.1483 163.758 17.8219C164.106 17.4955 164.618 17.3323 165.292 17.3323C166.01 17.3323 166.533 17.6043 166.859 18.1483C167.185 18.6706 167.349 19.3451 167.349 20.172C167.349 22.1304 167.011 24.2302 166.337 26.4714C165.662 28.6909 164.629 30.584 163.236 32.1507C161.843 33.7174 160.114 34.5008 158.046 34.5008C156.98 34.5008 156.11 34.2723 155.435 33.8153C154.761 33.3584 154.325 32.673 154.13 31.759C152.911 33.5869 151.366 34.5008 149.495 34.5008ZM171.759 34.5008C170.519 34.5008 169.485 34.0765 168.659 33.2278C167.832 32.3792 167.418 31.0519 167.418 29.2458C167.418 27.6356 167.734 25.9492 168.365 24.1867C169.018 22.4024 169.975 20.9009 171.237 19.6824C172.521 18.4421 174.044 17.8219 175.807 17.8219C176.699 17.8219 177.362 17.9743 177.798 18.2789C178.233 18.5835 178.45 18.9861 178.45 19.4866V19.715L178.81 17.9851H183.51L181.16 29.0826C181.073 29.409 181.029 29.7571 181.029 30.1271C181.029 31.0627 181.475 31.5306 182.367 31.5306C182.977 31.5306 183.499 31.2477 183.934 30.6819C184.391 30.1162 184.75 29.3764 185.011 28.4624H186.382C185.577 30.8125 184.576 32.4118 183.379 33.2605C182.204 34.0873 181.018 34.5008 179.821 34.5008C178.907 34.5008 178.168 34.2505 177.602 33.7501C177.058 33.2278 176.731 32.4771 176.623 31.4979C175.992 32.3901 175.284 33.119 174.501 33.6848C173.739 34.2288 172.826 34.5008 171.759 34.5008ZM173.881 31.3347C174.425 31.3347 174.958 31.0845 175.48 30.584C176.024 30.0618 176.394 29.3546 176.59 28.4624L178.157 21.0859C178.157 20.803 178.048 20.531 177.83 20.2699C177.613 19.987 177.275 19.8456 176.818 19.8456C175.948 19.8456 175.165 20.3569 174.468 21.3796C173.772 22.3806 173.228 23.5991 172.836 25.0353C172.445 26.4497 172.249 27.7009 172.249 28.7888C172.249 29.8768 172.401 30.5731 172.706 30.8778C173.032 31.1824 173.424 31.3347 173.881 31.3347ZM188.254 34.5008C187.21 34.5008 186.361 34.1744 185.708 33.5216C185.077 32.8688 184.762 31.8896 184.762 30.584C184.762 30.04 184.849 29.3328 185.023 28.4624L188.515 12.11L193.346 11.4572L189.593 29.0826C189.506 29.409 189.462 29.7571 189.462 30.1271C189.462 30.5623 189.56 30.8778 189.756 31.0736C189.973 31.2477 190.322 31.3347 190.8 31.3347C191.431 31.3347 192.019 31.0736 192.563 30.5514C193.107 30.0074 193.498 29.3111 193.738 28.4624H195.109C194.304 30.8125 193.27 32.4118 192.008 33.2605C190.746 34.0873 189.495 34.5008 188.254 34.5008ZM198.327 34.5008C196.739 34.5008 195.498 34.0873 194.606 33.2605C193.714 32.4118 193.268 31.0954 193.268 29.3111C193.268 27.8097 193.562 26.1559 194.149 24.3499C194.737 22.5438 195.694 20.988 197.021 19.6824C198.349 18.355 200.035 17.6914 202.081 17.6914C204.474 17.6914 205.671 18.7358 205.671 20.8248C205.671 22.0433 205.323 23.1639 204.626 24.1867C203.93 25.2094 203.005 26.0362 201.852 26.6673C200.699 27.2765 199.469 27.6247 198.164 27.7117C198.12 28.1904 198.098 28.5168 198.098 28.6909C198.098 30.497 198.773 31.4 200.122 31.4C200.731 31.4 201.384 31.2368 202.081 30.9104C202.777 30.584 203.408 30.1706 203.974 29.6701C203.386 32.8905 201.504 34.5008 198.327 34.5008ZM198.392 26.145C199.219 26.1233 199.992 25.8513 200.71 25.329C201.449 24.8068 202.037 24.1431 202.472 23.338C202.929 22.5112 203.158 21.6516 203.158 20.7595C203.158 19.8673 202.886 19.4213 202.342 19.4213C201.58 19.4213 200.818 20.1176 200.057 21.5102C199.317 22.8811 198.762 24.426 198.392 26.145Z" fill="url(#paint1_linear_207_1296)"/>
<defs>
<linearGradient id="paint0_linear_207_1296" x1="-0.00537135" y1="5.32123" x2="37.4939" y2="6.34243" gradientUnits="userSpaceOnUse">
<stop stop-color="#C84AD6"/>
<stop offset="1" stop-color="#6F3CE3"/>
</linearGradient>
<linearGradient id="paint1_linear_207_1296" x1="45.9541" y1="5.76146" x2="226.825" y2="30.6098" gradientUnits="userSpaceOnUse">
<stop stop-color="#C84AD6"/>
<stop offset="1" stop-color="#6F3CE3"/>
</linearGradient>
</defs>
</svg>
