<svg width="112" height="31" viewBox="0 0 112 31" fill="none" xmlns="http://www.w3.org/2000/svg">
<g clip-path="url(#clip0_579_484)">
<path d="M15.4627 30.6752C6.92537 30.6752 0 23.7992 0 15.3524C0 6.87598 6.92537 0 15.4627 0C23.9701 0 30.9254 6.87598 30.9254 15.3524C30.8955 23.7992 23.9701 30.6752 15.4627 30.6752ZM15.4627 0.237103C7.07463 0.237103 0.238806 7.02417 0.238806 15.3524C0.238806 23.6806 7.04478 30.4381 15.4328 30.4381C23.8209 30.4381 30.6269 23.6806 30.6269 15.3524C30.6269 7.02417 23.8209 0.237103 15.4627 0.237103Z" fill="url(#paint0_linear_579_484)"/>
<path d="M17.8507 16.2712C18.3881 16.123 18.8955 15.9155 19.4328 15.6191C20.0896 15.2338 20.6567 14.7596 21.1642 14.1965C21.6716 13.6334 22.0896 12.9814 22.3881 12.2997C22.7164 11.5884 22.8657 10.8771 22.8657 10.1361C22.8657 9.83976 22.7164 9.39519 22.4478 8.80244C22.1791 8.20968 21.791 7.64656 21.2836 7.08344C20.1493 5.80902 18.5373 4.94952 16.8657 4.80133C15.6716 4.68278 14.3284 4.80133 13.1642 5.06807C12.1194 5.30517 11.1045 5.77938 10.1791 6.31286C9.58209 6.63888 9.07463 7.0538 8.59701 7.52801C7.82089 8.26896 6.80597 9.09882 7.01493 10.2843C7.13433 10.9364 7.58209 11.4995 8.02985 11.9737C8.23881 12.1812 8.50746 12.5664 8.83582 12.4775C9.31343 12.3293 9.16418 11.3809 9.10448 11.0253C8.95522 9.95831 8.71642 9.30628 9.55224 8.50606C9.8806 8.20968 12.9552 6.28322 12.9851 7.49837C12.9851 7.61692 12.9552 7.73548 12.8955 7.85403C12.7164 8.35787 12.6269 8.86171 12.5373 9.36556C12.4179 10.1361 12.2985 10.966 12.209 11.8848C12.1194 12.7739 12.0597 13.7223 12.0299 14.7004C11.9701 15.6784 11.9403 16.6268 11.9403 17.5456C11.9104 18.4644 11.9104 19.3239 11.9104 20.1241V22.5248C11.9104 23.1175 11.9104 23.5917 11.9403 24.0066C11.9701 24.3919 12 24.718 12.0597 24.9551C12.1194 25.1922 12.209 25.37 12.3284 25.4589C12.4478 25.5774 12.597 25.6071 12.7761 25.6071H13.2537C13.4925 25.6071 13.7313 25.6071 14 25.5775C14.2687 25.5478 14.5075 25.4885 14.7761 25.4293C15.0149 25.37 15.194 25.2811 15.3134 25.1625C15.0746 25.0736 14.9254 24.9551 14.8955 24.7772C14.8657 24.5994 14.8358 24.4809 14.8358 24.3919V18.6126C14.8358 17.9902 14.8657 17.5752 14.8955 17.427C14.8955 17.2196 15.3731 17.2492 15.4925 17.2492C15.9104 17.2492 16.3284 17.2196 16.7463 17.3085C16.8955 17.3381 17.194 17.3678 17.3134 17.4567C17.4925 17.5752 17.5522 17.7531 17.6418 17.9309C17.7612 18.1976 17.8507 18.4644 17.9104 18.7607C18.0299 19.2646 18.0597 19.7981 18.0896 20.3019C18.1791 21.1614 18.2985 22.258 18.4776 23.6214C18.5672 24.3327 18.806 24.8661 19.194 25.1329C19.5821 25.4293 20.0597 25.5775 20.7164 25.5775C21.3731 25.5775 21.8806 25.4293 22.2687 25.1625C22.6567 24.8661 22.8657 24.5401 22.8657 24.1252C22.8657 24.0363 22.8657 23.977 22.8657 23.9474C22.8657 23.8881 22.8358 23.8585 22.8358 23.7992C22.7164 24.0066 22.5672 24.1548 22.4478 24.2438C22.3284 24.3327 22.1791 24.3623 21.9701 24.3623C21.791 24.3623 21.6418 24.2437 21.5224 23.977C21.403 23.7399 21.3433 23.4139 21.2836 22.999C21.2239 22.6137 21.194 22.1395 21.1642 21.6653C21.1343 21.1614 21.1045 20.6872 21.0448 20.1834C20.9851 19.6795 20.9254 19.235 20.806 18.7904C20.6866 18.3458 20.5373 17.9902 20.3582 17.7234C19.8806 17.0714 19.0746 16.6861 18.3284 16.449M15.7612 15.3524C15.3731 15.3524 15.1343 15.3228 15.0448 15.2338C14.9552 15.1449 14.9254 14.9967 14.9254 14.73V8.12077C14.9254 7.61692 14.9851 7.26127 15.0746 7.0538C15.194 6.84634 15.3134 6.72779 15.4925 6.69815C15.8806 6.66851 16.1194 6.66851 16.2388 6.66851H16.5075C17.7015 6.66851 18.6866 6.90562 19.4627 7.40946C20.209 7.9133 20.597 8.62461 20.597 9.60266C20.597 10.1065 20.4776 10.6993 20.209 11.3809C19.9403 12.033 19.5821 12.685 19.1343 13.2778C18.6866 13.8705 18.1791 14.3744 17.6119 14.7893C17.0149 15.1449 16.3881 15.3524 15.7612 15.3524Z" fill="url(#paint1_linear_579_484)"/>
<path d="M4.65672 19.8573C3.9403 18.2865 3.8209 16.6861 4.35821 15.0857C4.44776 14.8486 4.62687 14.7596 4.80597 14.8189C5.01493 14.8782 5.10448 15.0857 5.01493 15.3228C4.62687 16.4786 4.59701 17.6345 4.95522 18.7607C5.46269 20.3612 6.50746 21.5171 8.02985 22.2284C8.14925 22.2877 8.26866 22.3173 8.41791 22.3766C8.62687 22.4655 8.74627 22.6433 8.65672 22.8508C8.59701 23.0286 8.38806 23.1175 8.1791 23.0286C6.77612 22.5248 5.67164 21.6356 4.92537 20.3612C4.80597 20.1834 4.71642 20.0055 4.65672 19.8573Z" fill="url(#paint2_linear_579_484)"/>
<path d="M8.26866 23.2064C8.20895 23.2064 8.1791 23.1768 8.1194 23.1768C6.68657 22.6433 5.55224 21.7245 4.77612 20.4501C4.71642 20.3316 4.62687 20.213 4.56716 20.0945L4.47761 19.9463C3.73134 18.3162 3.61194 16.7157 4.1791 15.056C4.23881 14.9078 4.32836 14.7893 4.41791 14.73C4.53731 14.6707 4.68657 14.6411 4.83582 14.7004C4.95522 14.73 5.07463 14.8189 5.13433 14.9375C5.19403 15.056 5.19403 15.2338 5.13433 15.382C4.74627 16.5083 4.71642 17.6345 5.07463 18.7311C5.58209 20.2723 6.56716 21.4282 8.0597 22.1098C8.14925 22.1395 8.26866 22.1987 8.35821 22.2284L8.41791 22.258C8.71642 22.3766 8.86567 22.6433 8.74627 22.91C8.74627 23.1175 8.50746 23.2361 8.26866 23.2064ZM4.77612 19.7981L4.83582 19.9166C4.89552 20.0352 4.95522 20.1537 5.04478 20.2723C5.79104 21.4874 6.86567 22.3766 8.23881 22.8804C8.35821 22.9397 8.47761 22.8804 8.50746 22.7915C8.56716 22.6137 8.41791 22.5544 8.35821 22.5248L8.29851 22.4951C8.1791 22.4655 8.08955 22.4062 7.97015 22.3766C6.38806 21.6653 5.31343 20.4501 4.80597 18.82C4.44776 17.6642 4.44776 16.4786 4.86567 15.2635C4.89552 15.1746 4.89552 15.1153 4.86567 15.056C4.83582 15.0264 4.80597 14.9967 4.74627 14.9671C4.68657 14.9375 4.65672 14.9671 4.59701 14.9671C4.53731 14.9967 4.50746 15.056 4.47761 15.1153C3.97015 16.7157 4.0597 18.2273 4.77612 19.7981Z" fill="url(#paint3_linear_579_484)"/>
<path d="M5.8806 19.2053C5.40299 18.1976 5.34328 17.0418 5.73134 15.8859C5.8209 15.6784 6 15.5599 6.1791 15.6191C6.38806 15.6784 6.44776 15.8859 6.38806 16.0933C6.08955 16.9528 6.08955 17.7827 6.38806 18.6422C6.77612 19.7388 7.52239 20.4797 8.62686 20.9243C8.68657 20.954 8.71642 20.954 8.77612 20.9836C8.95522 21.0725 9.04478 21.2503 8.95522 21.4282C8.89552 21.606 8.68657 21.6949 8.50746 21.6356C7.85075 21.3985 7.28358 21.0429 6.77612 20.539C6.41791 20.1834 6.14925 19.7684 5.8806 19.2053Z" fill="url(#paint4_linear_579_484)"/>
<path d="M8.59701 21.7838C8.56716 21.7838 8.50746 21.7838 8.47761 21.7542C7.79104 21.5171 7.19403 21.1318 6.68657 20.6279C6.29851 20.2426 6 19.8277 5.73134 19.235C5.22388 18.168 5.19403 16.9528 5.58209 15.797C5.64179 15.6488 5.73134 15.5302 5.85075 15.471C5.97015 15.4117 6.08955 15.4117 6.23881 15.4413C6.50746 15.5302 6.65672 15.8266 6.53731 16.123C6.26866 16.9528 6.26866 17.7827 6.53731 18.5533C6.92537 19.5906 7.64179 20.3316 8.68657 20.7465L8.74627 20.7761C8.77612 20.7761 8.80597 20.8058 8.86567 20.8058C9.10448 20.9243 9.22388 21.1911 9.13433 21.4578C9.01493 21.6949 8.80597 21.8134 8.59701 21.7838ZM6 19.146C6.26866 19.6795 6.53731 20.0945 6.89552 20.4501C7.37313 20.9243 7.9403 21.28 8.56716 21.4874C8.65672 21.5171 8.77612 21.4874 8.80597 21.3689C8.83582 21.28 8.80597 21.1614 8.68657 21.1318C8.65672 21.1318 8.62686 21.1021 8.59701 21.1021L8.53731 21.0725C7.40299 20.6279 6.62686 19.8277 6.20895 18.7015C5.8806 17.842 5.8806 16.9528 6.1791 16.0637C6.20896 16.0044 6.23881 15.8266 6.0597 15.7673C6 15.7377 5.97015 15.7377 5.91045 15.7673C5.85075 15.797 5.8209 15.8562 5.79104 15.9155C5.49254 17.0121 5.55224 18.1384 6 19.146Z" fill="url(#paint5_linear_579_484)"/>
<path d="M7.10448 18.6422C6.80597 17.9605 6.74627 17.2789 6.98507 16.5379C7.04478 16.3304 7.25373 16.2119 7.43284 16.2712C7.64179 16.3304 7.73134 16.5379 7.64179 16.7454C7.28358 17.842 7.82089 18.9682 8.89552 19.3831C9.10448 19.4721 9.22388 19.6499 9.13433 19.8573C9.07463 20.0352 8.86567 20.1241 8.62687 20.0352C7.9403 19.7981 7.43284 19.3239 7.10448 18.6422Z" fill="url(#paint6_linear_579_484)"/>
<path d="M8.74627 20.2426C8.68657 20.2426 8.65672 20.213 8.59701 20.213C7.8806 19.9463 7.31343 19.4424 6.95522 18.7311C6.62687 18.0198 6.56716 17.2492 6.80597 16.5379C6.89552 16.2415 7.19403 16.0933 7.46269 16.1823C7.73134 16.2712 7.8806 16.5676 7.79104 16.8639C7.46269 17.842 7.9403 18.8793 8.95522 19.2646C9.25373 19.3831 9.40298 19.6499 9.28358 19.9166C9.22388 20.1537 8.98507 20.2723 8.74627 20.2426ZM7.25373 18.5829C7.58209 19.2053 8.0597 19.6795 8.71642 19.9166C8.83582 19.9759 8.95522 19.9166 9.01493 19.8277C9.07463 19.7092 8.95522 19.5906 8.86567 19.561C7.70149 19.1164 7.13433 17.9309 7.49254 16.7157C7.52239 16.5676 7.49254 16.4786 7.37313 16.4194C7.25373 16.3897 7.16418 16.4786 7.10448 16.5972C6.89552 17.2789 6.95522 17.9309 7.25373 18.5829Z" fill="url(#paint7_linear_579_484)"/>
<path d="M8.26866 18.1087C8.14925 17.8716 8.1194 17.6049 8.20895 17.3381C8.26866 17.1603 8.44776 17.0418 8.62687 17.101C8.80597 17.1603 8.92537 17.3381 8.86567 17.5456C8.80597 17.7827 8.86567 17.9013 9.07463 18.0198C9.25373 18.1087 9.34328 18.3162 9.25373 18.494C9.16418 18.6718 8.98507 18.7607 8.77612 18.6718C8.59701 18.5533 8.38806 18.3755 8.26866 18.1087Z" fill="url(#paint8_linear_579_484)"/>
<path d="M8.92537 18.82C8.86567 18.82 8.83582 18.7904 8.77612 18.7904C8.47761 18.6718 8.26866 18.4644 8.1194 18.1976C8 17.9013 7.97015 17.6049 8.0597 17.3085C8.14925 17.0418 8.41791 16.8936 8.68657 16.9528C8.95522 17.0418 9.10448 17.3085 9.04478 17.5752C9.01493 17.7234 9.04478 17.7827 9.16418 17.8716C9.43284 17.9902 9.55224 18.2865 9.43284 18.5236C9.37313 18.7311 9.13433 18.8497 8.92537 18.82ZM8.41791 18.0494C8.53731 18.2569 8.68657 18.4051 8.89552 18.494C9.01493 18.5236 9.13433 18.494 9.16418 18.4051C9.19403 18.3162 9.16418 18.1976 9.04478 18.1384C8.77612 18.0198 8.65672 17.7827 8.74627 17.4863C8.77612 17.3678 8.71642 17.2789 8.62687 17.2492C8.53731 17.2196 8.41791 17.2789 8.38806 17.3974C8.29851 17.6049 8.32836 17.842 8.41791 18.0494Z" fill="url(#paint9_linear_579_484)"/>
<path d="M50.209 20.7169C50.209 18.1976 51.5821 16.2119 53.3433 15.382C53.6418 15.2339 54.0299 15.1746 54.3881 15.1746C54.9851 15.1746 55.5821 15.382 55.7314 15.9748C56.1194 16.3008 56.2687 16.8936 56.2687 17.4863C56.2687 19.5313 54.7164 20.1537 53.2239 20.8058C52.8358 20.9836 52.4179 21.1911 51.9702 21.3392C52.0597 22.0209 52.3582 22.5544 53.0448 22.5544C54.1493 22.5544 54.9254 21.9913 55.5821 21.4874L55.612 21.5171C55.5224 21.8134 55.3135 22.4951 55.1642 22.7619C54.806 23.325 54.209 23.7103 53.612 24.0066C53.2538 24.0659 53.0448 24.1252 52.7761 24.1252C50.9552 24.1252 50.209 22.4062 50.209 20.7169ZM53.1642 19.9166C53.7314 19.4128 53.9403 18.82 54.209 17.9605C54.2388 17.8123 54.2687 17.6938 54.2687 17.5456C54.2687 17.4567 54.2687 17.3974 54.2388 17.3085C54.209 17.1307 54.3582 17.2789 54.4776 17.2492L54.6269 17.0121H54.5672C54.5672 17.0121 54.6866 16.9528 54.4179 17.0418C54.2388 17.0418 54.1493 17.1603 54 17.2196C52.8955 17.8123 51.9403 19.146 51.9105 20.6872C52.3284 20.4501 52.806 20.2426 53.1642 19.9166Z" fill="url(#paint10_linear_579_484)"/>
<path d="M60.5672 18.9089C60.5672 18.7015 60.5373 18.5237 60.5373 18.3458V17.9902C60.5373 17.9309 60.4776 17.8716 60.5373 17.8716C60.5672 17.8716 60.6269 17.9013 60.6567 17.9013V17.7234C60.6269 17.4863 60.6269 17.516 60.6269 17.516C60.6269 17.4863 60.6567 17.4567 60.6866 17.2492C61.1941 17.3974 61.7612 17.427 62.209 17.6642C62.3284 17.7234 62.209 17.9013 62.209 18.0198V18.3755C62.209 18.5829 62.1791 18.82 62.1791 19.0571C62.1791 20.1537 62.209 21.4874 62.6567 22.258C62.7164 22.1691 63.2239 21.1911 63.3433 21.0132C63.7015 20.0648 63.8508 19.0275 63.8508 17.9902C63.8508 17.1307 63.7314 17.2492 63.4627 16.5083C63.4329 16.4194 63.403 16.3305 63.403 16.2712C63.403 16.0637 63.4926 15.9155 63.5821 15.7081L63.612 15.5599C63.7612 15.4413 63.9105 15.3228 64.0597 15.2042C64.3284 15.3228 64.5075 15.382 64.7164 15.6191C65.2836 16.3008 65.3732 16.4786 65.3732 17.4567V17.6049C65.3732 19.2053 65.0746 20.9836 64.4776 22.2877C64.1194 23.0879 63.5224 24.0363 62.5373 24.0363C62.0896 24.0363 61.9403 23.8585 61.6418 23.6806C61.5224 23.5324 61.3732 23.3843 61.2538 23.2064C60.8358 22.5544 60.6866 21.606 60.597 20.6279C60.209 21.4578 59.8209 22.3173 59.3732 23.1175C59.1343 23.3546 58.9254 23.6214 58.5075 23.6214C57.2538 23.6214 57.1642 21.5467 57.1642 20.0648V19.4424C57.1642 18.4644 57.1941 17.4567 57.2836 16.6268C57.3135 16.4194 57.3732 16.0044 57.4329 15.8562H57.4627L59.1941 15.9748C59.2239 16.0637 59.2239 16.1526 59.2239 16.2415C59.2239 16.3305 59.1642 16.7454 59.1642 16.8047C59.0149 18.1087 58.8955 19.5906 58.8955 21.0132V21.5467C58.8955 21.8431 58.8955 22.1098 58.9552 22.3766C59.8508 21.6356 60.3582 20.213 60.5672 18.9089Z" fill="url(#paint11_linear_579_484)"/>
<path d="M77.3433 17.101C76.5075 18.1976 75.7911 19.8574 75.5523 21.606C75.4627 22.1987 75.4926 22.7915 75.4329 23.3843V23.4139C75.4329 23.6214 75.403 23.9474 75.1045 23.9474C74.9254 23.9474 74.6269 23.9177 74.0896 23.8585C73.9105 23.8288 73.7015 17.6049 73.6717 17.1603C73.6717 17.101 73.6418 17.0121 73.6418 16.9232C73.6418 16.8343 73.6717 16.7454 73.7314 16.7157L75.3433 16.2415C75.5523 16.4786 75.5821 16.9528 75.5821 17.427V17.7827C75.5821 17.9605 75.612 18.1384 75.612 18.3162V18.5533C75.8806 17.427 76.1791 16.2712 76.7164 15.3524C76.9851 15.0857 77.1642 14.8189 77.6717 14.8189C78.5373 14.8189 78.9851 15.5599 78.9851 16.4786C78.9851 17.2196 78.6269 17.3974 78 17.6049C77.7314 17.5456 77.4627 17.2492 77.3433 17.101Z" fill="url(#paint12_linear_579_484)"/>
<path d="M84.5672 23.6806C84.5075 23.6806 84.4478 23.651 84.3881 23.651H84.3582C83.5523 23.651 83.5224 22.1691 83.5224 21.2503V21.1318C83.1642 22.2284 82.6567 23.0582 81.8806 23.7695C81.5224 23.977 81.3731 24.1252 80.9851 24.1252C79.4627 24.1252 79.1045 22.3469 79.1045 20.8947C79.1045 19.1164 79.7911 17.3974 80.5672 16.3897C80.9552 15.8859 81.612 15.471 82.2687 15.471C82.9851 15.471 83.4329 15.9452 83.6717 16.6268C83.7612 15.6191 83.7612 13.6038 84.0299 12.6257C84.0896 12.359 84.1194 11.9737 84.4478 11.9144H85.3732C85.612 12.0922 85.612 12.3886 85.612 12.7739C85.612 13.7816 85.2836 15.797 85.1642 16.775C85.0448 18.1087 84.9851 19.4424 84.9851 20.7465V21.8727C84.9851 22.2284 85.0448 22.584 85.0448 22.9397C85.0448 23.3843 84.8657 23.5324 84.5672 23.6806ZM81.5821 22.5544C82.0597 22.2284 82.4478 21.8431 82.806 21.3985C83.0448 21.0725 83.3433 20.7168 83.4627 20.3316C83.5523 20.0055 83.4627 19.6202 83.4329 19.2942C83.3732 18.9089 83.2836 18.5533 83.1642 18.168C83.1045 17.9902 83.0448 17.8123 82.9254 17.6642C82.8657 17.5752 82.806 17.516 82.7164 17.4567C82.6567 17.4271 82.597 17.3974 82.5373 17.3678C82.3284 17.3085 82.1194 17.4863 82 17.6345C81.9105 17.7531 81.8508 17.8716 81.7612 17.9902C81.5821 18.2569 81.4329 18.5533 81.3134 18.8793C81.0448 19.561 80.8657 20.2723 80.8657 21.0132C80.8657 21.606 81.0149 22.1691 81.2538 22.6729C81.3135 22.6137 81.5224 22.584 81.5821 22.5544Z" fill="url(#paint13_linear_579_484)"/>
<path d="M90.1194 19.0275C90.1194 18.82 90.0896 18.6422 90.0896 18.4644V18.0791C90.0896 18.0198 90.0299 17.9605 90.0896 17.9605C90.1194 17.9605 90.1791 17.9902 90.209 17.9902V17.8123C90.1791 17.5752 90.1791 17.6049 90.1791 17.6049C90.1791 17.5752 90.209 17.5456 90.2388 17.3381C90.7463 17.4863 91.3134 17.516 91.7612 17.7531C91.8806 17.8123 91.7612 17.9902 91.7612 18.1087V18.4644C91.7612 18.6718 91.7314 18.9089 91.7314 19.146C91.7314 20.2426 91.7612 21.5763 92.209 22.3469C92.2687 22.258 92.7761 21.28 92.8955 21.1021C93.2538 20.1537 93.403 19.1164 93.403 18.0791C93.403 17.2196 92.9552 14.0187 92.6866 13.2481C92.6567 13.1592 92.6269 13.0703 92.6269 13.011C92.6269 12.8035 92.7164 12.6554 92.806 12.4479L92.8358 12.2997C92.9851 12.1812 93.1343 12.0626 93.2836 11.944C93.5523 12.0626 93.7314 12.1219 93.9403 12.359C94.5075 13.0407 94.9254 16.5676 94.9254 17.5456V17.6938C94.9254 19.2942 94.6269 21.0725 94.0299 22.3766C93.6717 23.1768 93.0746 24.1252 92.0896 24.1252C91.6418 24.1252 91.4926 23.9474 91.194 23.7695C91.0746 23.6214 90.9254 23.4732 90.806 23.2953C90.3881 22.6433 90.2388 21.6949 90.1493 20.7169C89.7612 21.5467 89.3731 22.4062 88.9254 23.2064C88.6866 23.4435 88.4776 23.7103 88.0597 23.7103C86.806 23.7103 86.7164 21.6356 86.7164 20.1537V19.561C86.7164 18.5829 86.7463 17.5752 86.8358 16.7454C86.8657 16.5379 86.9254 16.123 86.9851 15.9748H87.0149L88.7463 16.0933C88.7761 16.1823 88.7761 16.2712 88.7761 16.3601C88.7761 16.449 88.7164 16.8639 88.7164 16.9232C88.5672 18.2273 88.4478 19.7092 88.4478 21.1318V21.6653C88.4478 21.9616 88.4478 22.2284 88.5075 22.4951C89.403 21.7245 89.8806 20.3316 90.1194 19.0275Z" fill="url(#paint14_linear_579_484)"/>
<path d="M104.388 24.0066C104.328 24.0066 104.269 23.977 104.209 23.977H104.179C103.373 23.977 103.343 22.4951 103.343 21.5763V21.3392C103.343 18.5533 103.463 14.8486 103.851 12.3293C103.91 12.0626 103.94 11.6773 104.269 11.618H105.194C105.433 11.7959 105.433 12.0922 105.433 12.4775C105.433 13.6927 105.134 15.9155 104.985 17.101C104.866 18.4347 104.806 19.7684 104.806 21.0725V22.1987C104.806 22.5544 104.866 22.91 104.866 23.2657C104.866 23.7399 104.687 23.8585 104.388 24.0066Z" fill="url(#paint15_linear_579_484)"/>
<path d="M105.94 20.7169C105.94 18.1976 107.313 16.2119 109.075 15.382C109.373 15.2339 109.761 15.1746 110.119 15.1746C110.716 15.1746 111.313 15.382 111.463 15.9748C111.851 16.3008 112 16.8936 112 17.4863C112 19.5313 110.448 20.1537 108.955 20.8058C108.567 20.9836 108.149 21.1911 107.702 21.3392C107.791 22.0209 108.09 22.5544 108.776 22.5544C109.881 22.5544 110.657 21.9913 111.313 21.4874L111.343 21.5171C111.254 21.8134 111.045 22.4951 110.896 22.7619C110.537 23.325 109.94 23.7103 109.343 24.0066C108.985 24.0659 108.776 24.1252 108.507 24.1252C106.716 24.1252 105.94 22.4062 105.94 20.7169ZM108.896 19.9166C109.463 19.4128 109.672 18.82 109.94 17.9605C109.97 17.8123 110 17.6938 110 17.5456C110 17.4567 110 17.3974 109.97 17.3085C109.94 17.1307 110.09 17.2789 110.209 17.2492L110.358 17.0121H110.299C110.299 17.0121 110.418 16.9528 110.149 17.0418C109.97 17.0418 109.881 17.1603 109.731 17.2196C108.627 17.8123 107.672 19.146 107.642 20.6872C108.09 20.4501 108.537 20.2426 108.896 19.9166Z" fill="url(#paint16_linear_579_484)"/>
<path d="M72.0299 16.775C72.0597 16.7157 72.0896 16.6268 72.1493 16.5676C72.209 16.4786 72.2985 16.3897 72.3582 16.3008C72.3881 16.2712 72.3881 16.2415 72.3881 16.1823C72.3582 16.0637 70.8657 15.7081 70.8955 15.6488C70.8358 15.8266 70.7463 16.0044 70.6567 16.1526C70.597 16.2712 70.4776 16.4194 70.4776 16.5379C70.2388 15.9155 69.7911 15.4117 69.0746 15.4117C68.4179 15.4117 67.7612 15.8562 67.3732 16.3305C66.5672 17.3381 65.9105 19.0571 65.9105 20.8354C65.9105 22.2877 66.2687 24.0659 67.7911 24.0659C68.209 24.0659 68.3284 23.9474 68.6866 23.7103C69.4329 22.999 69.9403 22.1987 70.3284 21.0725V21.1911C70.3284 22.1098 70.3582 23.5917 71.1642 23.5917H71.194C71.2538 23.5917 71.3135 23.6214 71.3732 23.6214C71.7015 23.4732 71.8508 23.3546 71.8508 22.8804C71.8508 22.5248 71.7911 22.1691 71.7911 21.8134V20.7465C71.7911 20.0352 71.8209 19.2942 71.8508 18.5829C71.8806 18.168 71.9105 17.7531 71.9105 17.3381C71.9403 17.1307 71.9403 16.9528 72.0299 16.775ZM70.2687 20.3019C70.1493 20.6872 69.8508 21.0725 69.612 21.3689C69.2836 21.8134 68.8657 22.2284 68.3881 22.5248C68.3284 22.5544 68.1194 22.6137 68.0896 22.6433C67.8806 22.1395 67.7015 21.5763 67.7015 20.9836C67.7015 20.2426 67.8806 19.5313 68.1493 18.8497C68.2687 18.5533 68.4179 18.2569 68.597 17.9605C68.6866 17.842 68.7463 17.7234 68.8358 17.6049C68.9552 17.4567 69.1642 17.2789 69.3732 17.3381C69.4329 17.3678 69.4926 17.3974 69.5523 17.427C69.6418 17.4863 69.7015 17.5456 69.7612 17.6345C69.8508 17.7827 69.9403 17.9605 70 18.1384C70.1194 18.494 70.209 18.8793 70.2687 19.2646C70.2687 19.5906 70.3582 19.9759 70.2687 20.3019Z" fill="url(#paint17_linear_579_484)"/>
<path d="M102.03 16.6861C102.06 16.6268 102.09 16.5379 102.149 16.4786C102.209 16.3897 102.299 16.3008 102.358 16.2119C102.388 16.1823 102.388 16.1526 102.388 16.0933C102.358 15.9748 100.866 15.6191 100.896 15.5599C100.836 15.7377 100.746 15.9155 100.657 16.0637C100.597 16.1823 100.478 16.3305 100.478 16.449C100.239 15.8266 99.7911 15.3228 99.0746 15.3228C98.4179 15.3228 97.7612 15.7673 97.3732 16.2415C96.5672 17.2492 95.9105 18.9682 95.9105 20.7465C95.9105 22.1987 96.2687 23.977 97.7911 23.977C98.209 23.977 98.3284 23.8585 98.6866 23.6214C99.4329 22.91 99.9403 22.1098 100.328 20.9836V21.1021C100.328 22.0209 100.358 23.5028 101.164 23.5028H101.194C101.254 23.5028 101.313 23.5324 101.373 23.5324C101.702 23.3843 101.851 23.2657 101.851 22.7915C101.851 22.4358 101.791 22.0802 101.791 21.7245V20.5983C101.791 19.887 101.821 19.146 101.851 18.4347C101.881 18.0198 101.91 17.6049 101.91 17.1899C101.94 17.0714 101.97 16.8639 102.03 16.6861ZM100.269 20.2426C100.149 20.6279 99.8508 21.0132 99.612 21.3096C99.2836 21.7542 98.8657 22.1691 98.3881 22.4655C98.3284 22.4951 98.1194 22.5544 98.0896 22.584C97.8806 22.0802 97.7015 21.5171 97.7015 20.9243C97.7015 20.1834 97.8806 19.4721 98.1493 18.7904C98.2687 18.494 98.4179 18.1976 98.597 17.9013C98.6866 17.7827 98.7463 17.6642 98.8358 17.5456C98.9552 17.3974 99.1642 17.2196 99.3731 17.2789C99.4329 17.3085 99.4926 17.3381 99.5523 17.3678C99.6418 17.427 99.7015 17.4863 99.7612 17.5752C99.8508 17.7234 99.9403 17.9013 100 18.0791C100.119 18.4347 100.209 18.82 100.269 19.2053C100.269 19.5313 100.358 19.9166 100.269 20.2426Z" fill="url(#paint18_linear_579_484)"/>
<path d="M45.6418 16.2712C46.0896 16.1526 46.5373 15.9748 46.9851 15.7081C47.5523 15.382 48.0299 14.9671 48.4776 14.4929C48.9254 14.0187 49.2538 13.4852 49.5523 12.8925C49.8209 12.2997 49.9702 11.7069 49.9702 11.0549C49.9702 10.7882 49.8508 10.4325 49.612 9.92868C49.3732 9.45447 49.0448 8.95063 48.6269 8.47642C47.6717 7.40946 46.2687 6.66852 44.8358 6.54996C43.7911 6.46105 42.6567 6.54996 41.6418 6.78707C40.7463 6.99453 39.8806 7.37982 39.0747 7.82439C38.5672 8.09113 38.1194 8.44679 37.7015 8.83208C37.0448 9.45447 36.1791 10.1658 36.3582 11.1735C36.4478 11.7366 36.8358 12.1812 37.2538 12.5961C37.4329 12.7739 37.6717 13.0999 37.9403 13.011C38.3582 12.8925 38.209 12.0922 38.1791 11.7959C38.0299 10.9067 37.8508 10.3436 38.5672 9.66194C38.8358 9.42483 41.4926 7.79475 41.5224 8.80244C41.5224 8.92099 41.4926 9.00991 41.4627 9.09882C41.3135 9.51375 41.2239 9.92868 41.1344 10.3732C41.015 11.0253 40.9254 11.7366 40.8657 12.4775C40.806 13.2481 40.7463 14.0187 40.7164 14.8486C40.6866 15.6784 40.6567 16.449 40.6269 17.2492C40.597 18.0198 40.597 18.7608 40.597 19.4128V21.5467C40.597 22.0506 40.597 22.4655 40.6269 22.7915C40.6567 23.1175 40.6866 23.3843 40.7463 23.5917C40.806 23.7992 40.8955 23.9474 40.9851 24.0363C41.0747 24.1252 41.2239 24.1548 41.3732 24.1548H41.7911C42 24.1548 42.209 24.1548 42.4179 24.1252C42.6269 24.0956 42.8657 24.0659 43.0747 24.0066C43.2836 23.9474 43.4329 23.8881 43.5523 23.7695C43.3433 23.7103 43.2239 23.5917 43.1941 23.4435C43.1642 23.2953 43.1642 23.2064 43.1642 23.1175V18.2273C43.1642 17.6938 43.1941 17.3678 43.2239 17.2196C43.2239 17.0418 43.6418 17.0714 43.7314 17.0714C44.0896 17.0714 44.4478 17.0418 44.806 17.1307C44.9254 17.1603 45.1941 17.1899 45.2836 17.2492C45.4329 17.3381 45.4926 17.4863 45.5523 17.6345C45.6717 17.842 45.7314 18.0791 45.7911 18.3162C45.8806 18.7311 45.9105 19.1757 45.9403 19.6202C46 20.3316 46.1194 21.28 46.2687 22.4062C46.3582 23.0286 46.5672 23.4435 46.8657 23.6806C47.1941 23.9177 47.612 24.0659 48.1493 24.0659C48.7164 24.0659 49.1642 23.9474 49.4926 23.7103C49.8209 23.4732 50 23.1768 50 22.8508C50 22.7915 50 22.7322 50 22.7026C50 22.6729 49.9702 22.6137 49.9702 22.584C49.8508 22.7619 49.7612 22.8804 49.6418 22.9693C49.5523 23.0286 49.403 23.0879 49.2239 23.0879C49.0448 23.0879 48.9254 22.9693 48.8358 22.7619C48.7463 22.5544 48.6866 22.2877 48.6269 21.932C48.5672 21.606 48.5373 21.2207 48.5075 20.8058C48.4776 20.3908 48.4478 19.9759 48.4179 19.561C48.3881 19.146 48.2985 18.7608 48.209 18.3755C48.1194 18.0198 48 17.7234 47.8209 17.4863C47.403 16.9528 46.7164 16.6268 46.0896 16.3897M43.8508 15.5006C43.5224 15.5006 43.3135 15.471 43.2538 15.4117C43.1941 15.3524 43.1344 15.2042 43.1344 14.9671V9.3952C43.1344 8.98027 43.1941 8.68389 43.2836 8.50606C43.3732 8.32823 43.4926 8.20968 43.6418 8.20968C43.9702 8.18005 44.1791 8.18005 44.2687 8.18005H44.5075C45.5523 8.18005 46.3881 8.38751 47.0448 8.80244C47.7015 9.21737 48.0299 9.83976 48.0299 10.6696C48.0299 11.1142 47.9105 11.5884 47.6717 12.1515C47.4329 12.7146 47.1344 13.2481 46.7463 13.752C46.3582 14.2558 45.9403 14.6707 45.4329 15.0264C44.9254 15.3228 44.3881 15.5006 43.8508 15.5006Z" fill="url(#paint19_linear_579_484)"/>
</g>
<defs>
<linearGradient id="paint0_linear_579_484" x1="-2.40048e-07" y1="3.33426" x2="35.5744" y2="4.59684" gradientUnits="userSpaceOnUse">
<stop stop-color="#C84AD6"/>
<stop offset="1" stop-color="#6F3CE3"/>
</linearGradient>
<linearGradient id="paint1_linear_579_484" x1="-2.40048e-07" y1="3.33426" x2="35.5744" y2="4.59684" gradientUnits="userSpaceOnUse">
<stop stop-color="#C84AD6"/>
<stop offset="1" stop-color="#6F3CE3"/>
</linearGradient>
<linearGradient id="paint2_linear_579_484" x1="-2.40048e-07" y1="3.33426" x2="35.5744" y2="4.59684" gradientUnits="userSpaceOnUse">
<stop stop-color="#C84AD6"/>
<stop offset="1" stop-color="#6F3CE3"/>
</linearGradient>
<linearGradient id="paint3_linear_579_484" x1="-2.40048e-07" y1="3.33426" x2="35.5744" y2="4.59684" gradientUnits="userSpaceOnUse">
<stop stop-color="#C84AD6"/>
<stop offset="1" stop-color="#6F3CE3"/>
</linearGradient>
<linearGradient id="paint4_linear_579_484" x1="-2.40048e-07" y1="3.33426" x2="35.5744" y2="4.59684" gradientUnits="userSpaceOnUse">
<stop stop-color="#C84AD6"/>
<stop offset="1" stop-color="#6F3CE3"/>
</linearGradient>
<linearGradient id="paint5_linear_579_484" x1="-2.40048e-07" y1="3.33426" x2="35.5744" y2="4.59684" gradientUnits="userSpaceOnUse">
<stop stop-color="#C84AD6"/>
<stop offset="1" stop-color="#6F3CE3"/>
</linearGradient>
<linearGradient id="paint6_linear_579_484" x1="-2.40048e-07" y1="3.33426" x2="35.5744" y2="4.59684" gradientUnits="userSpaceOnUse">
<stop stop-color="#C84AD6"/>
<stop offset="1" stop-color="#6F3CE3"/>
</linearGradient>
<linearGradient id="paint7_linear_579_484" x1="-2.40048e-07" y1="3.33426" x2="35.5744" y2="4.59684" gradientUnits="userSpaceOnUse">
<stop stop-color="#C84AD6"/>
<stop offset="1" stop-color="#6F3CE3"/>
</linearGradient>
<linearGradient id="paint8_linear_579_484" x1="-2.40048e-07" y1="3.33426" x2="35.5744" y2="4.59684" gradientUnits="userSpaceOnUse">
<stop stop-color="#C84AD6"/>
<stop offset="1" stop-color="#6F3CE3"/>
</linearGradient>
<linearGradient id="paint9_linear_579_484" x1="-2.40048e-07" y1="3.33426" x2="35.5744" y2="4.59684" gradientUnits="userSpaceOnUse">
<stop stop-color="#C84AD6"/>
<stop offset="1" stop-color="#6F3CE3"/>
</linearGradient>
<linearGradient id="paint10_linear_579_484" x1="36.3343" y1="8.4334" x2="121.541" y2="21.3011" gradientUnits="userSpaceOnUse">
<stop stop-color="#C84AD6"/>
<stop offset="1" stop-color="#6F3CE3"/>
</linearGradient>
<linearGradient id="paint11_linear_579_484" x1="36.3343" y1="8.4334" x2="121.541" y2="21.3011" gradientUnits="userSpaceOnUse">
<stop stop-color="#C84AD6"/>
<stop offset="1" stop-color="#6F3CE3"/>
</linearGradient>
<linearGradient id="paint12_linear_579_484" x1="36.3343" y1="8.4334" x2="121.541" y2="21.3011" gradientUnits="userSpaceOnUse">
<stop stop-color="#C84AD6"/>
<stop offset="1" stop-color="#6F3CE3"/>
</linearGradient>
<linearGradient id="paint13_linear_579_484" x1="36.3343" y1="8.4334" x2="121.541" y2="21.3011" gradientUnits="userSpaceOnUse">
<stop stop-color="#C84AD6"/>
<stop offset="1" stop-color="#6F3CE3"/>
</linearGradient>
<linearGradient id="paint14_linear_579_484" x1="36.3343" y1="8.4334" x2="121.541" y2="21.3011" gradientUnits="userSpaceOnUse">
<stop stop-color="#C84AD6"/>
<stop offset="1" stop-color="#6F3CE3"/>
</linearGradient>
<linearGradient id="paint15_linear_579_484" x1="36.3343" y1="8.4334" x2="121.541" y2="21.3011" gradientUnits="userSpaceOnUse">
<stop stop-color="#C84AD6"/>
<stop offset="1" stop-color="#6F3CE3"/>
</linearGradient>
<linearGradient id="paint16_linear_579_484" x1="36.3343" y1="8.4334" x2="121.541" y2="21.3011" gradientUnits="userSpaceOnUse">
<stop stop-color="#C84AD6"/>
<stop offset="1" stop-color="#6F3CE3"/>
</linearGradient>
<linearGradient id="paint17_linear_579_484" x1="36.3343" y1="8.4334" x2="121.541" y2="21.3011" gradientUnits="userSpaceOnUse">
<stop stop-color="#C84AD6"/>
<stop offset="1" stop-color="#6F3CE3"/>
</linearGradient>
<linearGradient id="paint18_linear_579_484" x1="36.3343" y1="8.4334" x2="121.541" y2="21.3011" gradientUnits="userSpaceOnUse">
<stop stop-color="#C84AD6"/>
<stop offset="1" stop-color="#6F3CE3"/>
</linearGradient>
<linearGradient id="paint19_linear_579_484" x1="36.3343" y1="8.4334" x2="121.541" y2="21.3011" gradientUnits="userSpaceOnUse">
<stop stop-color="#C84AD6"/>
<stop offset="1" stop-color="#6F3CE3"/>
</linearGradient>
<clipPath id="clip0_579_484">
<rect width="112" height="30.6752" fill="white"/>
</clipPath>
</defs>
</svg>
