<svg width="360" height="137" viewBox="0 0 360 137" fill="none" xmlns="http://www.w3.org/2000/svg">
<g opacity="0.6">
<path opacity="0.3" d="M365.702 89.9238C366.144 93.3014 367.6 96.4401 369.858 98.8779C372.115 101.316 375.054 102.924 378.242 103.465C413.798 111.776 441.698 142.989 442.954 182.387C444.116 218.732 422.995 253.074 390.141 265.164C375.777 270.445 361.388 269.944 346.502 269.944H132.027C121.147 269.944 110.243 270.07 99.3387 269.944C81.1654 269.971 63.3343 264.725 47.7918 254.78C32.2492 244.835 19.5925 230.572 11.203 213.549C2.81352 196.526 -0.986355 177.396 0.218169 158.248C1.42269 139.1 7.58533 120.669 18.0334 104.967C42.9939 66.5952 89.1459 52.4028 130.533 65.8193C138.474 68.3223 146.226 63.967 150.611 57.1837C177.325 15.9331 226.037 -6.44428 272.853 3.24259C294.233 7.66107 314.11 18.0237 330.432 33.2611C346.753 48.4986 358.929 68.059 365.702 89.9238Z" stroke="#8A40DF" stroke-width="2" stroke-miterlimit="10" stroke-dasharray="12 12"/>
</g>
</svg>
